<svg width="354" height="93" viewBox="0 0 354 93" fill="none" xmlns="http://www.w3.org/2000/svg">
<path d="M121.164 26.2324C120.9 28.4883 120.065 30.2314 118.659 31.4619C117.263 32.6826 115.402 33.293 113.078 33.293C110.559 33.293 108.537 32.3896 107.014 30.583C105.5 28.7764 104.743 26.3594 104.743 23.332V21.2812C104.743 19.2988 105.095 17.5557 105.798 16.0518C106.511 14.5479 107.517 13.3955 108.815 12.5947C110.114 11.7842 111.618 11.3789 113.327 11.3789C115.593 11.3789 117.409 12.0137 118.776 13.2832C120.144 14.543 120.939 16.291 121.164 18.5273H118.337C118.093 16.8281 117.561 15.5977 116.74 14.8359C115.93 14.0742 114.792 13.6934 113.327 13.6934C111.53 13.6934 110.119 14.3574 109.094 15.6855C108.078 17.0137 107.57 18.9033 107.57 21.3545V23.4199C107.57 25.7344 108.054 27.5752 109.021 28.9424C109.987 30.3096 111.34 30.9932 113.078 30.9932C114.641 30.9932 115.837 30.6416 116.667 29.9385C117.507 29.2256 118.063 27.9902 118.337 26.2324H121.164ZM123.874 24.9287C123.874 23.376 124.177 21.9795 124.782 20.7393C125.397 19.499 126.247 18.542 127.331 17.8682C128.425 17.1943 129.67 16.8574 131.066 16.8574C133.225 16.8574 134.968 17.6045 136.296 19.0986C137.634 20.5928 138.303 22.5801 138.303 25.0605V25.251C138.303 26.7939 138.005 28.1807 137.409 29.4111C136.823 30.6318 135.979 31.584 134.875 32.2676C133.781 32.9512 132.521 33.293 131.096 33.293C128.947 33.293 127.204 32.5459 125.866 31.0518C124.538 29.5576 123.874 27.5801 123.874 25.1191V24.9287ZM126.599 25.251C126.599 27.0088 127.004 28.4199 127.814 29.4844C128.635 30.5488 129.729 31.0811 131.096 31.0811C132.473 31.0811 133.566 30.5439 134.377 29.4697C135.188 28.3857 135.593 26.8721 135.593 24.9287C135.593 23.1904 135.178 21.7842 134.348 20.71C133.527 19.626 132.434 19.084 131.066 19.084C129.729 19.084 128.649 19.6162 127.829 20.6807C127.009 21.7451 126.599 23.2686 126.599 25.251ZM144.25 17.1504L144.323 18.9082C145.485 17.541 147.053 16.8574 149.025 16.8574C151.242 16.8574 152.751 17.707 153.552 19.4062C154.079 18.6445 154.763 18.0293 155.603 17.5605C156.452 17.0918 157.453 16.8574 158.605 16.8574C162.082 16.8574 163.85 18.6982 163.908 22.3799V33H161.198V22.541C161.198 21.4082 160.939 20.5635 160.422 20.0068C159.904 19.4404 159.035 19.1572 157.814 19.1572C156.809 19.1572 155.974 19.46 155.31 20.0654C154.646 20.6611 154.26 21.4668 154.152 22.4824V33H151.428V22.6143C151.428 20.3096 150.3 19.1572 148.044 19.1572C146.267 19.1572 145.051 19.9141 144.396 21.4277V33H141.687V17.1504H144.25ZM170.559 17.1504L170.632 18.9082C171.794 17.541 173.361 16.8574 175.334 16.8574C177.551 16.8574 179.06 17.707 179.86 19.4062C180.388 18.6445 181.071 18.0293 181.911 17.5605C182.761 17.0918 183.762 16.8574 184.914 16.8574C188.391 16.8574 190.158 18.6982 190.217 22.3799V33H187.507V22.541C187.507 21.4082 187.248 20.5635 186.73 20.0068C186.213 19.4404 185.344 19.1572 184.123 19.1572C183.117 19.1572 182.282 19.46 181.618 20.0654C180.954 20.6611 180.568 21.4668 180.461 22.4824V33H177.736V22.6143C177.736 20.3096 176.608 19.1572 174.353 19.1572C172.575 19.1572 171.359 19.9141 170.705 21.4277V33H167.995V17.1504H170.559ZM204.104 31.4326C203.049 32.6729 201.501 33.293 199.46 33.293C197.771 33.293 196.481 32.8047 195.593 31.8281C194.714 30.8418 194.27 29.3867 194.26 27.4629V17.1504H196.97V27.3896C196.97 29.792 197.946 30.9932 199.899 30.9932C201.97 30.9932 203.347 30.2217 204.03 28.6787V17.1504H206.74V33H204.162L204.104 31.4326ZM213.435 17.1504L213.522 19.1426C214.733 17.6191 216.315 16.8574 218.269 16.8574C221.618 16.8574 223.308 18.7471 223.337 22.5264V33H220.627V22.5117C220.617 21.3691 220.354 20.5244 219.836 19.9775C219.328 19.4307 218.532 19.1572 217.448 19.1572C216.569 19.1572 215.798 19.3916 215.134 19.8604C214.47 20.3291 213.952 20.9443 213.581 21.7061V33H210.871V17.1504H213.435ZM230.368 33H227.658V17.1504H230.368V33ZM227.438 12.9463C227.438 12.5068 227.57 12.1357 227.834 11.833C228.107 11.5303 228.508 11.3789 229.035 11.3789C229.562 11.3789 229.963 11.5303 230.236 11.833C230.51 12.1357 230.646 12.5068 230.646 12.9463C230.646 13.3857 230.51 13.752 230.236 14.0449C229.963 14.3379 229.562 14.4844 229.035 14.4844C228.508 14.4844 228.107 14.3379 227.834 14.0449C227.57 13.752 227.438 13.3857 227.438 12.9463Z" fill="#00A7E1"/>
<path d="M240.036 22.9365L243.552 17.1504H246.716L241.53 24.9873L246.877 33H243.742L240.08 27.0674L236.418 33H233.269L238.615 24.9873L233.43 17.1504H236.564L240.036 22.9365ZM262.99 25.251C262.99 27.6631 262.438 29.6064 261.335 31.0811C260.231 32.5557 258.737 33.293 256.853 33.293C254.929 33.293 253.415 32.6826 252.312 31.4619V39.0938H249.602V17.1504H252.077L252.209 18.9082C253.312 17.541 254.846 16.8574 256.809 16.8574C258.713 16.8574 260.217 17.5752 261.32 19.0107C262.434 20.4463 262.99 22.4434 262.99 25.002V25.251ZM260.28 24.9434C260.28 23.1562 259.899 21.7451 259.138 20.71C258.376 19.6748 257.331 19.1572 256.003 19.1572C254.362 19.1572 253.132 19.8848 252.312 21.3398V28.9131C253.122 30.3584 254.362 31.0811 256.032 31.0811C257.331 31.0811 258.361 30.5684 259.123 29.543C259.895 28.5078 260.28 26.9746 260.28 24.9434ZM276.232 33C276.076 32.6875 275.949 32.1309 275.852 31.3301C274.592 32.6387 273.088 33.293 271.34 33.293C269.777 33.293 268.493 32.8535 267.487 31.9746C266.491 31.0859 265.993 29.9629 265.993 28.6055C265.993 26.9551 266.618 25.6758 267.868 24.7676C269.128 23.8496 270.896 23.3906 273.171 23.3906H275.808V22.1455C275.808 21.1982 275.524 20.4463 274.958 19.8896C274.392 19.3232 273.557 19.04 272.453 19.04C271.486 19.04 270.676 19.2842 270.021 19.7725C269.367 20.2607 269.04 20.8516 269.04 21.5449H266.315C266.315 20.7539 266.594 19.9922 267.15 19.2598C267.717 18.5176 268.479 17.9316 269.436 17.502C270.402 17.0723 271.462 16.8574 272.614 16.8574C274.44 16.8574 275.871 17.3164 276.906 18.2344C277.941 19.1426 278.479 20.3975 278.518 21.999V29.2939C278.518 30.749 278.703 31.9062 279.074 32.7656V33H276.232ZM271.735 30.9346C272.585 30.9346 273.391 30.7148 274.152 30.2754C274.914 29.8359 275.466 29.2646 275.808 28.5615V25.3096H273.684C270.363 25.3096 268.703 26.2812 268.703 28.2246C268.703 29.0742 268.986 29.7383 269.553 30.2168C270.119 30.6953 270.847 30.9346 271.735 30.9346ZM285.329 17.1504L285.417 19.1426C286.628 17.6191 288.21 16.8574 290.163 16.8574C293.513 16.8574 295.202 18.7471 295.231 22.5264V33H292.521V22.5117C292.512 21.3691 292.248 20.5244 291.73 19.9775C291.223 19.4307 290.427 19.1572 289.343 19.1572C288.464 19.1572 287.692 19.3916 287.028 19.8604C286.364 20.3291 285.847 20.9443 285.476 21.7061V33H282.766V17.1504H285.329ZM308.547 28.7959C308.547 28.0635 308.269 27.4971 307.712 27.0967C307.165 26.6865 306.203 26.335 304.826 26.042C303.459 25.749 302.37 25.3975 301.56 24.9873C300.759 24.5771 300.163 24.0889 299.772 23.5225C299.392 22.9561 299.201 22.2822 299.201 21.501C299.201 20.2021 299.748 19.1035 300.842 18.2051C301.945 17.3066 303.352 16.8574 305.061 16.8574C306.857 16.8574 308.312 17.3213 309.426 18.249C310.549 19.1768 311.11 20.3633 311.11 21.8086H308.386C308.386 21.0664 308.068 20.4268 307.434 19.8896C306.809 19.3525 306.018 19.084 305.061 19.084C304.074 19.084 303.303 19.2988 302.746 19.7285C302.189 20.1582 301.911 20.7197 301.911 21.4131C301.911 22.0674 302.17 22.5605 302.688 22.8926C303.205 23.2246 304.138 23.542 305.485 23.8447C306.843 24.1475 307.941 24.5088 308.781 24.9287C309.621 25.3486 310.241 25.8564 310.642 26.4521C311.052 27.0381 311.257 27.7559 311.257 28.6055C311.257 30.0215 310.69 31.1592 309.558 32.0186C308.425 32.8682 306.955 33.293 305.148 33.293C303.879 33.293 302.756 33.0684 301.779 32.6191C300.803 32.1699 300.036 31.5449 299.479 30.7441C298.933 29.9336 298.659 29.0596 298.659 28.1221H301.369C301.418 29.0303 301.779 29.7529 302.453 30.29C303.137 30.8174 304.035 31.0811 305.148 31.0811C306.174 31.0811 306.994 30.876 307.609 30.4658C308.234 30.0459 308.547 29.4893 308.547 28.7959ZM317.731 33H315.021V17.1504H317.731V33ZM314.802 12.9463C314.802 12.5068 314.934 12.1357 315.197 11.833C315.471 11.5303 315.871 11.3789 316.398 11.3789C316.926 11.3789 317.326 11.5303 317.6 11.833C317.873 12.1357 318.01 12.5068 318.01 12.9463C318.01 13.3857 317.873 13.752 317.6 14.0449C317.326 14.3379 316.926 14.4844 316.398 14.4844C315.871 14.4844 315.471 14.3379 315.197 14.0449C314.934 13.752 314.802 13.3857 314.802 12.9463ZM321.364 24.9287C321.364 23.376 321.667 21.9795 322.272 20.7393C322.888 19.499 323.737 18.542 324.821 17.8682C325.915 17.1943 327.16 16.8574 328.557 16.8574C330.715 16.8574 332.458 17.6045 333.786 19.0986C335.124 20.5928 335.793 22.5801 335.793 25.0605V25.251C335.793 26.7939 335.495 28.1807 334.899 29.4111C334.313 30.6318 333.469 31.584 332.365 32.2676C331.271 32.9512 330.012 33.293 328.586 33.293C326.438 33.293 324.694 32.5459 323.356 31.0518C322.028 29.5576 321.364 27.5801 321.364 25.1191V24.9287ZM324.089 25.251C324.089 27.0088 324.494 28.4199 325.305 29.4844C326.125 30.5488 327.219 31.0811 328.586 31.0811C329.963 31.0811 331.057 30.5439 331.867 29.4697C332.678 28.3857 333.083 26.8721 333.083 24.9287C333.083 23.1904 332.668 21.7842 331.838 20.71C331.018 19.626 329.924 19.084 328.557 19.084C327.219 19.084 326.14 19.6162 325.319 20.6807C324.499 21.7451 324.089 23.2686 324.089 25.251ZM341.755 17.1504L341.843 19.1426C343.054 17.6191 344.636 16.8574 346.589 16.8574C349.938 16.8574 351.628 18.7471 351.657 22.5264V33H348.947V22.5117C348.938 21.3691 348.674 20.5244 348.156 19.9775C347.648 19.4307 346.853 19.1572 345.769 19.1572C344.89 19.1572 344.118 19.3916 343.454 19.8604C342.79 20.3291 342.272 20.9443 341.901 21.7061V33H339.191V17.1504H341.755Z" fill="#25D366"/>
<path d="M110.902 54.2344C109.184 54.2344 107.785 53.6719 106.707 52.5469C105.629 51.4141 105.09 49.9023 105.09 48.0117V47.6133C105.09 46.3555 105.328 45.2344 105.805 44.25C106.289 43.2578 106.961 42.4844 107.82 41.9297C108.688 41.3672 109.625 41.0859 110.633 41.0859C112.281 41.0859 113.562 41.6289 114.477 42.7148C115.391 43.8008 115.848 45.3555 115.848 47.3789V48.2812H107.258C107.289 49.5312 107.652 50.543 108.348 51.3164C109.051 52.082 109.941 52.4648 111.02 52.4648C111.785 52.4648 112.434 52.3086 112.965 51.9961C113.496 51.6836 113.961 51.2695 114.359 50.7539L115.684 51.7852C114.621 53.418 113.027 54.2344 110.902 54.2344ZM110.633 42.8672C109.758 42.8672 109.023 43.1875 108.43 43.8281C107.836 44.4609 107.469 45.3516 107.328 46.5H113.68V46.3359C113.617 45.2344 113.32 44.3828 112.789 43.7812C112.258 43.1719 111.539 42.8672 110.633 42.8672ZM140.984 47.8008C140.984 49.7305 140.543 51.2852 139.66 52.4648C138.777 53.6445 137.582 54.2344 136.074 54.2344C134.535 54.2344 133.324 53.7461 132.441 52.7695V58.875H130.273V41.3203H132.254L132.359 42.7266C133.242 41.6328 134.469 41.0859 136.039 41.0859C137.562 41.0859 138.766 41.6602 139.648 42.8086C140.539 43.957 140.984 45.5547 140.984 47.6016V47.8008ZM138.816 47.5547C138.816 46.125 138.512 44.9961 137.902 44.168C137.293 43.3398 136.457 42.9258 135.395 42.9258C134.082 42.9258 133.098 43.5078 132.441 44.6719V50.7305C133.09 51.8867 134.082 52.4648 135.418 52.4648C136.457 52.4648 137.281 52.0547 137.891 51.2344C138.508 50.4062 138.816 49.1797 138.816 47.5547ZM151.578 54C151.453 53.75 151.352 53.3047 151.273 52.6641C150.266 53.7109 149.062 54.2344 147.664 54.2344C146.414 54.2344 145.387 53.8828 144.582 53.1797C143.785 52.4688 143.387 51.5703 143.387 50.4844C143.387 49.1641 143.887 48.1406 144.887 47.4141C145.895 46.6797 147.309 46.3125 149.129 46.3125H151.238V45.3164C151.238 44.5586 151.012 43.957 150.559 43.5117C150.105 43.0586 149.438 42.832 148.555 42.832C147.781 42.832 147.133 43.0273 146.609 43.418C146.086 43.8086 145.824 44.2812 145.824 44.8359H143.645C143.645 44.2031 143.867 43.5938 144.312 43.0078C144.766 42.4141 145.375 41.9453 146.141 41.6016C146.914 41.2578 147.762 41.0859 148.684 41.0859C150.145 41.0859 151.289 41.4531 152.117 42.1875C152.945 42.9141 153.375 43.918 153.406 45.1992V51.0352C153.406 52.1992 153.555 53.125 153.852 53.8125V54H151.578ZM147.98 52.3477C148.66 52.3477 149.305 52.1719 149.914 51.8203C150.523 51.4688 150.965 51.0117 151.238 50.4492V47.8477H149.539C146.883 47.8477 145.555 48.625 145.555 50.1797C145.555 50.8594 145.781 51.3906 146.234 51.7734C146.688 52.1562 147.27 52.3477 147.98 52.3477ZM158.855 41.3203L158.926 42.9141C159.895 41.6953 161.16 41.0859 162.723 41.0859C165.402 41.0859 166.754 42.5977 166.777 45.6211V54H164.609V45.6094C164.602 44.6953 164.391 44.0195 163.977 43.582C163.57 43.1445 162.934 42.9258 162.066 42.9258C161.363 42.9258 160.746 43.1133 160.215 43.4883C159.684 43.8633 159.27 44.3555 158.973 44.9648V54H156.805V41.3203H158.855ZM177.43 50.6367C177.43 50.0508 177.207 49.5977 176.762 49.2773C176.324 48.9492 175.555 48.668 174.453 48.4336C173.359 48.1992 172.488 47.918 171.84 47.5898C171.199 47.2617 170.723 46.8711 170.41 46.418C170.105 45.9648 169.953 45.4258 169.953 44.8008C169.953 43.7617 170.391 42.8828 171.266 42.1641C172.148 41.4453 173.273 41.0859 174.641 41.0859C176.078 41.0859 177.242 41.457 178.133 42.1992C179.031 42.9414 179.48 43.8906 179.48 45.0469H177.301C177.301 44.4531 177.047 43.9414 176.539 43.5117C176.039 43.082 175.406 42.8672 174.641 42.8672C173.852 42.8672 173.234 43.0391 172.789 43.3828C172.344 43.7266 172.121 44.1758 172.121 44.7305C172.121 45.2539 172.328 45.6484 172.742 45.9141C173.156 46.1797 173.902 46.4336 174.98 46.6758C176.066 46.918 176.945 47.207 177.617 47.543C178.289 47.8789 178.785 48.2852 179.105 48.7617C179.434 49.2305 179.598 49.8047 179.598 50.4844C179.598 51.6172 179.145 52.5273 178.238 53.2148C177.332 53.8945 176.156 54.2344 174.711 54.2344C173.695 54.2344 172.797 54.0547 172.016 53.6953C171.234 53.3359 170.621 52.8359 170.176 52.1953C169.738 51.5469 169.52 50.8477 169.52 50.0977H171.688C171.727 50.8242 172.016 51.4023 172.555 51.832C173.102 52.2539 173.82 52.4648 174.711 52.4648C175.531 52.4648 176.188 52.3008 176.68 51.9727C177.18 51.6367 177.43 51.1914 177.43 50.6367ZM184.777 54H182.609V41.3203H184.777V54ZM182.434 37.957C182.434 37.6055 182.539 37.3086 182.75 37.0664C182.969 36.8242 183.289 36.7031 183.711 36.7031C184.133 36.7031 184.453 36.8242 184.672 37.0664C184.891 37.3086 185 37.6055 185 37.957C185 38.3086 184.891 38.6016 184.672 38.8359C184.453 39.0703 184.133 39.1875 183.711 39.1875C183.289 39.1875 182.969 39.0703 182.75 38.8359C182.539 38.6016 182.434 38.3086 182.434 37.957ZM187.684 47.543C187.684 46.3008 187.926 45.1836 188.41 44.1914C188.902 43.1992 189.582 42.4336 190.449 41.8945C191.324 41.3555 192.32 41.0859 193.438 41.0859C195.164 41.0859 196.559 41.6836 197.621 42.8789C198.691 44.0742 199.227 45.6641 199.227 47.6484V47.8008C199.227 49.0352 198.988 50.1445 198.512 51.1289C198.043 52.1055 197.367 52.8672 196.484 53.4141C195.609 53.9609 194.602 54.2344 193.461 54.2344C191.742 54.2344 190.348 53.6367 189.277 52.4414C188.215 51.2461 187.684 49.6641 187.684 47.6953V47.543ZM189.863 47.8008C189.863 49.207 190.188 50.3359 190.836 51.1875C191.492 52.0391 192.367 52.4648 193.461 52.4648C194.562 52.4648 195.438 52.0352 196.086 51.1758C196.734 50.3086 197.059 49.0977 197.059 47.543C197.059 46.1523 196.727 45.0273 196.062 44.168C195.406 43.3008 194.531 42.8672 193.438 42.8672C192.367 42.8672 191.504 43.293 190.848 44.1445C190.191 44.9961 189.863 46.2148 189.863 47.8008ZM203.996 41.3203L204.066 42.9141C205.035 41.6953 206.301 41.0859 207.863 41.0859C210.543 41.0859 211.895 42.5977 211.918 45.6211V54H209.75V45.6094C209.742 44.6953 209.531 44.0195 209.117 43.582C208.711 43.1445 208.074 42.9258 207.207 42.9258C206.504 42.9258 205.887 43.1133 205.355 43.4883C204.824 43.8633 204.41 44.3555 204.113 44.9648V54H201.945V41.3203H203.996Z" fill="black"/>
<path d="M122.621 45.9492L125.434 41.3203H127.965L123.816 47.5898L128.094 54H125.586L122.656 49.2539L119.727 54H117.207L121.484 47.5898L117.336 41.3203H119.844L122.621 45.9492Z" fill="#04D361"/>
<path d="M113.875 69.7188L115.406 61.625H117.742L115.219 73H112.859L111.008 65.3906L109.156 73H106.797L104.273 61.625H106.609L108.148 69.7031L110.023 61.625H112.008L113.875 69.7188ZM125.859 68.0703H121.359V71.1172H126.641V73H119.016V61.625H126.625V63.5234H121.359V66.2344H125.859V68.0703ZM134.859 68.0703H130.359V71.1172H135.641V73H128.016V61.625H135.625V63.5234H130.359V66.2344H134.859V68.0703ZM140.578 68.4375L139.359 69.75V73H137.016V61.625H139.359V66.7812L140.391 65.3672L143.289 61.625H146.172L142.133 66.6797L146.289 73H143.5L140.578 68.4375Z" fill="black"/>
<path d="M20.1511 56.8147C20.1307 58.6914 19.1144 60.7481 17.5525 62.0606C16.8599 62.6426 16.056 62.9474 15.1724 62.9047C14.3971 62.8673 13.5419 62.329 12.8939 61.7177C11.4078 60.3158 10.5335 58.1698 10.7082 56.2752C10.8903 54.2999 12.6778 52.7876 14.7044 52.4361C17.5437 51.9439 20.117 54.2159 20.1511 56.8147C20.1683 58.1256 22.3469 58.1271 22.3296 56.8147C22.2984 54.4394 20.9129 52.2477 18.6664 51.1161C16.4162 49.9827 13.5589 50.1487 11.4697 51.5168C9.40786 52.8671 8.28177 55.1774 8.54558 57.5161C8.79684 59.7437 9.94647 61.9937 11.7381 63.4992C12.7344 64.3364 13.9462 64.88 15.2935 64.945C16.6788 65.0118 17.959 64.3796 18.9934 63.5793C21.0337 62.0007 22.3028 59.2669 22.3295 56.8148C22.344 55.5023 20.1654 55.5037 20.1511 56.8147Z" fill="#00A7E1"/>
<path d="M26.002 71.4515C26.002 72.9015 26.002 74.3515 26.002 75.8014C26.3651 75.4623 26.7282 75.1233 27.0913 74.7842C22.1405 74.7842 17.1898 74.7842 12.239 74.7842C9.40591 74.7842 6.57291 74.7842 3.73981 74.7842C4.1029 75.1233 4.46598 75.4623 4.82907 75.8014C4.82907 74.9807 4.82907 74.16 4.82907 73.3393C4.82907 72.4703 4.73705 71.495 4.89805 70.6608C5.18925 69.1513 6.23421 67.9599 7.69277 67.2892C8.74603 66.8047 9.94535 66.8841 11.1178 66.8841C10.8043 66.7163 10.4908 66.5483 10.1773 66.3804C11.6159 68.2139 13.0544 70.0473 14.4929 71.8809C15.0006 72.528 15.8671 72.5324 16.374 71.8809C17.8005 70.0473 19.2271 68.2139 20.6537 66.3804C20.3402 66.5483 20.0267 66.7163 19.7132 66.8841C21.0641 66.8841 22.3003 66.8481 23.5011 67.4656C25.0562 68.2652 25.9812 69.814 26.002 71.4515C26.0187 72.7624 28.1972 72.7639 28.1805 71.4515C28.1502 69.0769 26.8019 66.9028 24.6004 65.7091C23.5514 65.1403 22.3111 64.85 21.1014 64.85C20.2987 64.85 19.3038 64.671 18.7714 65.3553C17.3545 67.1764 15.9375 68.9975 14.5205 70.8186C14.5113 70.8305 14.5021 70.8423 14.4928 70.8542C15.1198 70.8542 15.7468 70.8542 16.3739 70.8542C14.9487 69.0377 13.5235 67.2211 12.0982 65.4046C11.5626 64.7219 10.7976 64.8499 9.99743 64.8499C8.89811 64.8499 7.85336 65.0156 6.84274 65.4276C4.49555 66.3846 3.02173 68.4511 2.69319 70.7815C2.57545 71.6168 2.65056 72.5002 2.65056 73.3393C2.65056 74.16 2.65056 74.9807 2.65056 75.8014C2.65056 76.3559 3.14601 76.8185 3.73981 76.8185C8.69053 76.8185 13.6412 76.8185 18.5921 76.8185C21.4252 76.8185 24.2582 76.8185 27.0913 76.8185C27.6851 76.8185 28.1805 76.3559 28.1805 75.8014C28.1805 74.3514 28.1805 72.9014 28.1805 71.4515C28.1805 70.1397 26.002 70.1397 26.002 71.4515Z" fill="#00A7E1"/>
<path d="M87.685 56.8147C87.6646 58.6914 86.6482 60.7481 85.0862 62.0606C84.3936 62.6426 83.5898 62.9474 82.7063 62.9047C81.9309 62.8673 81.0758 62.329 80.4278 61.7177C78.9417 60.3158 78.0674 58.1698 78.2421 56.2752C78.4243 54.2999 80.2117 52.7876 82.2383 52.4361C85.0774 51.9439 87.6509 54.2159 87.685 56.8147C87.7022 58.1256 89.8807 58.1271 89.8635 56.8147C89.8323 54.4394 88.4468 52.2477 86.2002 51.1161C83.9501 49.9827 81.0927 50.1487 79.0035 51.5168C76.9417 52.8671 75.8156 55.1774 76.0795 57.5161C76.3307 59.7437 77.4804 61.9937 79.272 63.4992C80.2683 64.3364 81.4801 64.88 82.8273 64.945C84.2127 65.0118 85.4929 64.3796 86.5272 63.5793C88.5675 62.0007 89.8365 59.2669 89.8633 56.8148C89.8778 55.5023 87.6993 55.5037 87.685 56.8147Z" fill="#00A7E1"/>
<path d="M93.5358 71.4515C93.5358 72.9015 93.5358 74.3515 93.5358 75.8014C93.8989 75.4623 94.262 75.1233 94.6251 74.7842C89.6742 74.7842 84.7236 74.7842 79.7728 74.7842C76.9397 74.7842 74.1067 74.7842 71.2736 74.7842C71.6367 75.1233 71.9998 75.4623 72.3629 75.8014C72.3629 74.9807 72.3629 74.16 72.3629 73.3393C72.3629 72.4703 72.2708 71.495 72.4317 70.6608C72.723 69.1513 73.7679 67.9599 75.2265 67.2892C76.2797 66.8047 77.4791 66.8841 78.6516 66.8841C78.3381 66.7163 78.0246 66.5483 77.7111 66.3804C79.1497 68.2139 80.5881 70.0473 82.0267 71.8809C82.5344 72.528 83.4009 72.5324 83.9078 71.8809C85.3343 70.0473 86.7609 68.2139 88.1875 66.3804C87.874 66.5483 87.5605 66.7163 87.247 66.8841C88.5977 66.8841 89.834 66.8482 91.0348 67.4656C92.5899 68.2652 93.515 69.814 93.5358 71.4515C93.5525 72.7624 95.731 72.7639 95.7143 71.4515C95.684 69.0769 94.3357 66.9027 92.1342 65.7091C91.0852 65.1403 89.8449 64.85 88.6351 64.85C87.8325 64.85 86.8376 64.671 86.3052 65.3553C84.8883 67.1764 83.4714 68.9975 82.0543 70.8186C82.0451 70.8305 82.0359 70.8423 82.0266 70.8542C82.6536 70.8542 83.2807 70.8542 83.9077 70.8542C82.4826 69.0377 81.0572 67.2211 79.632 65.4046C79.0964 64.7219 78.3314 64.8499 77.5312 64.8499C76.4318 64.8499 75.387 65.0156 74.3765 65.4276C72.0292 66.3846 70.5554 68.4511 70.227 70.7815C70.1091 71.6168 70.1844 72.5002 70.1844 73.3393C70.1844 74.16 70.1844 74.9807 70.1844 75.8014C70.1844 76.3559 70.6798 76.8185 71.2736 76.8185C76.2244 76.8185 81.175 76.8185 86.1259 76.8185C88.959 76.8185 91.792 76.8185 94.6251 76.8185C95.2189 76.8185 95.7143 76.3559 95.7143 75.8014C95.7143 74.3514 95.7143 72.9014 95.7143 71.4515C95.7143 70.1397 93.5358 70.1397 93.5358 71.4515Z" fill="#00A7E1"/>
<path d="M53.918 11.9641C53.8976 13.8409 52.8813 15.8975 51.3193 17.21C50.6266 17.792 49.8228 18.0968 48.9393 18.0541C48.164 18.0166 47.3088 17.4784 46.6608 16.8671C45.1747 15.4653 44.3004 13.3192 44.4751 11.4245C44.6572 9.44927 46.4447 7.93694 48.4713 7.5855C51.3105 7.0933 53.8839 9.36528 53.918 11.9641C53.9353 13.2749 56.1138 13.2765 56.0965 11.9641C56.0653 9.58876 54.6798 7.39709 52.4332 6.26545C50.1831 5.13198 47.3258 5.29802 45.2366 6.6662C43.1748 8.01647 42.0487 10.3267 42.3125 12.6654C42.5637 14.893 43.7135 17.1429 45.5051 18.6485C46.5015 19.4856 47.7131 20.0293 49.0605 20.0943C50.4458 20.1612 51.726 19.5288 52.7603 18.7286C54.8006 17.15 56.0697 14.4162 56.0964 11.9641C56.1109 10.6517 53.9323 10.6531 53.918 11.9641Z" fill="#00A7E1"/>
<path d="M59.7689 26.6008C59.7689 28.0507 59.7689 29.5006 59.7689 30.9506C60.1319 30.6115 60.495 30.2725 60.8581 29.9335C55.9073 29.9335 50.9567 29.9335 46.0059 29.9335C43.1728 29.9335 40.3398 29.9335 37.5067 29.9335C37.8697 30.2725 38.2328 30.6115 38.5959 30.9506C38.5959 30.1299 38.5959 29.3092 38.5959 28.4886C38.5959 27.6195 38.5039 26.6443 38.6649 25.81C38.9561 24.3005 40.0011 23.1092 41.4596 22.4384C42.5129 21.954 43.7122 22.0335 44.8846 22.0335C44.5712 21.8656 44.2577 21.6976 43.9442 21.5296C45.3827 23.3632 46.8212 25.1966 48.2598 27.0301C48.7675 27.6772 49.6339 27.6816 50.1409 27.0301C51.5674 25.1966 52.994 23.3632 54.4205 21.5296C54.107 21.6976 53.7935 21.8655 53.48 22.0335C54.8308 22.0335 56.067 21.9974 57.2678 22.6148C58.823 23.4144 59.748 24.9632 59.7689 26.6008C59.7856 27.9117 61.9641 27.9131 61.9474 26.6008C61.9171 24.2261 60.5688 22.052 58.3672 20.8582C57.3182 20.2894 56.0779 19.9991 54.8681 19.9991C54.0655 19.9991 53.0707 19.8201 52.5383 20.5043C51.1213 22.3254 49.7044 24.1466 48.2874 25.9677C48.2781 25.9795 48.2689 25.9914 48.2597 26.0033C48.8867 26.0033 49.5138 26.0033 50.1408 26.0033C48.7155 24.1868 47.2902 22.3702 45.8651 20.5537C45.3295 19.871 44.5644 19.999 43.7643 19.999C42.665 19.999 41.6202 20.1647 40.6096 20.5767C38.2624 21.5337 36.7886 23.6002 36.46 25.9305C36.3423 26.7659 36.4174 27.6493 36.4174 28.4885C36.4174 29.3091 36.4174 30.1298 36.4174 30.9505C36.4174 31.505 36.9129 31.9676 37.5067 31.9676C42.4574 31.9676 47.4081 31.9676 52.3589 31.9676C55.192 31.9676 58.025 31.9676 60.8581 31.9676C61.4519 31.9676 61.9474 31.505 61.9474 30.9505C61.9474 29.5005 61.9474 28.0506 61.9474 26.6007C61.9474 25.2889 59.7689 25.2889 59.7689 26.6008Z" fill="#00A7E1"/>
<path d="M14.028 45.1324C16.2086 35.7306 22.6644 27.5738 31.6361 22.8486C31.8606 22.7305 32.0872 22.6157 32.3144 22.5019C33.5525 21.8813 32.4523 20.1251 31.2148 20.7453C21.9632 25.3823 15.0401 33.5324 12.3331 43.0073C12.1832 43.5321 12.0503 44.0608 11.9272 44.5915C11.6307 45.8706 13.7307 46.4143 14.028 45.1324Z" fill="#25D366"/>
<path d="M66.3004 81.6574C55.7226 87 42.6856 87.0076 32.1011 81.676C31.8439 81.5465 31.5895 81.4125 31.3357 81.2773C30.1136 80.6263 29.0164 82.3842 30.2362 83.0339C35.514 85.8453 41.4344 87.4331 47.5018 87.7003C53.6421 87.9706 59.7868 86.7853 65.3557 84.3768C66.0483 84.0772 66.7285 83.753 67.3999 83.4139C68.6359 82.7897 67.536 81.0333 66.3004 81.6574Z" fill="#25D366"/>
<path d="M65.141 22.0635C74.3141 26.3594 81.2091 34.1632 83.8948 43.4209C84.005 43.801 84.1057 44.1836 84.2019 44.567C84.5224 45.844 86.6229 45.3023 86.3026 44.0261C83.9071 34.4788 77.2352 26.1589 68.1468 21.2612C67.5222 20.9246 66.8851 20.6088 66.2405 20.3069C65.7098 20.0584 65.0642 20.1711 64.7502 20.6718C64.4648 21.1268 64.6106 21.8151 65.141 22.0635Z" fill="#25D366"/>
<path d="M65.5735 45.7756C65.5352 43.3028 63.8555 41.1968 61.3616 40.3996C60.4734 40.1157 59.5437 40.1357 58.6214 40.1357C55.8883 40.1357 53.1552 40.1357 50.4221 40.1357C47.3209 40.1357 44.2197 40.1357 41.1186 40.1357C40.3885 40.1357 39.6582 40.1357 38.9281 40.1357C36.8706 40.1357 35.0748 41.0391 33.8636 42.5733C32.9694 43.7059 32.7917 45.0627 32.7917 46.4207C32.7917 47.6734 32.7917 48.9259 32.7917 50.1784C32.7917 52.6164 32.7917 55.0544 32.7917 57.4924C32.7917 60.0183 34.5659 62.2107 37.1364 62.9573C38.0229 63.2146 38.9534 63.1825 39.8689 63.1825C40.6161 63.1825 41.3633 63.1825 42.1104 63.1825C41.7473 62.8434 41.3842 62.5044 41.0212 62.1654C41.0212 64.2666 41.0212 66.3678 41.0212 68.469C41.0212 69.3912 42.1898 69.7689 42.8807 69.1883C45.381 67.0871 47.8812 64.9858 50.3815 62.8846C50.1247 62.9839 49.868 63.0832 49.6112 63.1825C52.1811 63.1825 54.7509 63.1825 57.3207 63.1825C58.3825 63.1825 59.4889 63.2552 60.5421 63.0978C63.0327 62.7253 65.0839 60.81 65.4828 58.4842C65.621 57.6786 65.5735 56.8485 65.5735 56.0354C65.5735 54.6891 65.5735 53.3429 65.5735 51.9967C65.5735 49.9229 65.5735 47.8493 65.5735 45.7756C65.5735 44.4638 63.395 44.4638 63.395 45.7756C63.395 48.0092 63.395 50.2429 63.395 52.4766C63.395 53.8287 63.395 55.1807 63.395 56.5327C63.395 57.5619 63.4133 58.4829 62.8446 59.399C62.0598 60.6636 60.6499 61.1482 59.1515 61.1482C57.797 61.1482 56.4427 61.1482 55.0884 61.1482C53.5679 61.1482 52.0474 61.1482 50.5268 61.1482C50.2235 61.1482 49.9201 61.1482 49.6168 61.1482C49.1202 61.1482 48.7955 61.4844 48.4573 61.7686C46.0849 63.7623 43.7126 65.756 41.3402 67.7498C41.96 67.9895 42.5798 68.2293 43.1997 68.469C43.1997 66.3678 43.1997 64.2666 43.1997 62.1654C43.1997 61.6109 42.7042 61.1482 42.1104 61.1482C40.9227 61.1482 39.7272 61.1885 38.5406 61.1404C36.549 61.0596 34.9702 59.362 34.9702 57.5385C34.9702 55.2426 34.9702 52.9468 34.9702 50.6508C34.9702 49.3252 34.9702 47.9997 34.9702 46.6742C34.9702 45.5867 35.0017 44.6516 35.6669 43.7042C36.4193 42.6328 37.7396 42.1699 39.0701 42.1699C39.9178 42.1699 40.7654 42.1699 41.6132 42.1699C47.381 42.1699 53.1486 42.1699 58.9164 42.1699C59.5187 42.1699 60.0708 42.1711 60.6498 42.3226C62.2879 42.7511 63.3709 44.2205 63.3951 45.7756C63.4152 47.0862 65.5938 47.0881 65.5735 45.7756Z" fill="#25D366"/>
<path d="M49.5935 51.8945C49.5679 52.3956 48.7972 52.3956 48.7717 51.8945C48.746 51.3928 49.5679 51.3958 49.5935 51.8945C49.66 53.2003 51.8388 53.2064 51.772 51.8945C51.7028 50.5349 50.6386 49.5412 49.1826 49.4766C47.7289 49.4121 46.6574 50.6319 46.5931 51.8945C46.524 53.2521 47.8304 54.2526 49.1826 54.3126C50.6364 54.3771 51.7078 53.1571 51.772 51.8945C51.8387 50.5826 49.6599 50.5886 49.5935 51.8945Z" fill="#00A7E1"/>
<path d="M42.0926 51.9043C42.0671 52.4054 41.2963 52.4054 41.2708 51.9043C41.2453 51.4026 42.0673 51.4056 42.0926 51.9043C42.1591 53.2101 44.3379 53.2162 44.2711 51.9043C44.2019 50.5446 43.1378 49.5509 41.6817 49.4863C40.228 49.4218 39.1566 50.6417 39.0923 51.9043C39.0232 53.2618 40.3295 54.2624 41.6817 54.3224C43.1355 54.3869 44.2068 53.1669 44.2711 51.9043C44.3379 50.5924 42.1591 50.5984 42.0926 51.9043Z" fill="#00A7E1"/>
<path d="M57.0943 51.9043C57.0687 52.4054 56.298 52.4054 56.2724 51.9043C56.2469 51.4026 57.0688 51.4056 57.0943 51.9043C57.1608 53.2101 59.3396 53.2162 59.2728 51.9043C59.2036 50.5445 58.1394 49.5509 56.6834 49.4863C55.2296 49.4218 54.1581 50.6417 54.0939 51.9043C54.0248 53.2618 55.3312 54.2624 56.6834 54.3224C58.1371 54.3869 59.2086 53.1669 59.2728 51.9043C59.3396 50.5924 57.1608 50.5984 57.0943 51.9043Z" fill="#00A7E1"/>
</svg>
