<svg width="659" height="493" viewBox="0 0 659 493" fill="none" xmlns="http://www.w3.org/2000/svg">
<g filter="url(#filter0_d)">
<path d="M347.121 109.121C348.293 107.95 348.293 106.05 347.121 104.879L328.029 85.7868C326.858 84.6152 324.958 84.6152 323.787 85.7868C322.615 86.9584 322.615 88.8579 323.787 90.0294L340.757 107L323.787 123.971C322.615 125.142 322.615 127.042 323.787 128.213C324.958 129.385 326.858 129.385 328.029 128.213L347.121 109.121ZM343 110L345 110L345 104L343 104L343 110Z" fill="#25D366"/>
</g>
<g filter="url(#filter1_d)">
<path d="M510.879 253.121C512.05 254.293 513.95 254.293 515.121 253.121L534.213 234.029C535.385 232.858 535.385 230.958 534.213 229.787C533.042 228.615 531.142 228.615 529.971 229.787L513 246.757L496.029 229.787C494.858 228.615 492.958 228.615 491.787 229.787C490.615 230.958 490.615 232.858 491.787 234.029L510.879 253.121ZM510 250V251H516V250H510Z" fill="#25D366"/>
</g>
<g filter="url(#filter2_d)">
<path d="M137.879 254.121C139.05 255.293 140.95 255.293 142.121 254.121L161.213 235.029C162.385 233.858 162.385 231.958 161.213 230.787C160.042 229.615 158.142 229.615 156.971 230.787L140 247.757L123.029 230.787C121.858 229.615 119.958 229.615 118.787 230.787C117.615 231.958 117.615 233.858 118.787 235.029L137.879 254.121ZM137 251V252H143V251H137Z" fill="#CE3030"/>
</g>
<rect x="370.135" y="279.34" width="287.865" height="212.66" rx="19" fill="#ECF9FD" stroke="#007EA7" stroke-width="2"/>
<path d="M603.576 370.777C603.576 382.596 592.75 392.373 579.139 392.373C565.528 392.373 554.702 382.596 554.702 370.777C554.702 358.958 565.528 349.181 579.139 349.181C592.75 349.181 603.576 358.958 603.576 370.777Z" fill="white" stroke="#2D2D2D" stroke-width="2"/>
<line x1="579.548" y1="393.373" x2="579.548" y2="457.052" stroke="#2D2D2D" stroke-width="2"/>
<line y1="-1" x2="11.2979" y2="-1" transform="matrix(0 1 1 0 570.266 365.642)" stroke="#2D2D2D" stroke-width="2"/>
<line y1="-1" x2="11.2979" y2="-1" transform="matrix(0 1 1 0 561.984 363.588)" stroke="#2D2D2D" stroke-width="2"/>
<line y1="-1" x2="56.0697" y2="-1" transform="matrix(-0.991745 0.128226 -0.169093 -0.9856 578.548 405.698)" stroke="black" stroke-width="2"/>
<path d="M469.883 369.75C469.883 381.569 459.057 391.346 445.446 391.346C431.835 391.346 421.009 381.569 421.009 369.75C421.009 357.931 431.835 348.154 445.446 348.154C459.057 348.154 469.883 357.931 469.883 369.75Z" fill="white" stroke="#2D2D2D" stroke-width="2"/>
<line x1="445.855" y1="392.346" x2="445.855" y2="456.025" stroke="#2D2D2D" stroke-width="2"/>
<line x1="452.953" y1="363.587" x2="452.953" y2="374.885" stroke="#2D2D2D" stroke-width="2"/>
<line x1="461.235" y1="361.533" x2="461.235" y2="372.831" stroke="#2D2D2D" stroke-width="2"/>
<line y1="-1" x2="43.8839" y2="-1" transform="matrix(0.997532 -0.0702137 0.0929947 0.995667 444.855 410.833)" stroke="black" stroke-width="2"/>
<path d="M489.222 437.537L508.743 425.212V385.156L501.645 405.698H477.982L496.912 418.023L489.222 437.537Z" fill="#00A7E1" stroke="#003459"/>
<path d="M515.842 405.698L508.743 385.156L508.743 411.86H506.969C505.785 411.176 502.828 410.833 502.828 414.428C502.828 418.023 505.391 417.681 506.969 416.996H508.743V425.726L528.265 437.537L520.575 418.023L539.504 405.698H515.842Z" fill="#00A7E1" stroke="#003459"/>
<g filter="url(#filter3_d)">
<path fill-rule="evenodd" clip-rule="evenodd" d="M497.398 348.092C501.795 351.987 507.659 357.342 507.659 357.342C507.659 357.342 521.83 340.789 535.023 333L536 335.921C531.114 338.842 516.455 355.395 511.08 370C511.08 370 495.932 355.395 493 351.987L497.398 348.092Z" fill="#25D366"/>
</g>
<path d="M570.88 303.315H568.779V308H566.143V295.203H570.897C572.409 295.203 573.575 295.54 574.396 296.214C575.216 296.888 575.626 297.84 575.626 299.07C575.626 299.943 575.436 300.673 575.055 301.259C574.68 301.839 574.108 302.302 573.341 302.647L576.109 307.877V308H573.279L570.88 303.315ZM568.779 301.18H570.906C571.568 301.18 572.081 301.013 572.444 300.679C572.808 300.339 572.989 299.873 572.989 299.281C572.989 298.678 572.816 298.203 572.471 297.857C572.131 297.512 571.606 297.339 570.897 297.339H568.779V301.18ZM581.849 308.176C580.454 308.176 579.317 307.748 578.438 306.893C577.565 306.037 577.129 304.897 577.129 303.474V303.228C577.129 302.272 577.313 301.42 577.683 300.67C578.052 299.914 578.573 299.334 579.247 298.93C579.927 298.52 580.7 298.314 581.567 298.314C582.868 298.314 583.891 298.725 584.635 299.545C585.385 300.365 585.76 301.528 585.76 303.034V304.071H579.704C579.786 304.692 580.032 305.19 580.442 305.565C580.858 305.94 581.383 306.128 582.016 306.128C582.994 306.128 583.759 305.773 584.31 305.064L585.558 306.462C585.177 307.001 584.661 307.423 584.011 307.728C583.36 308.026 582.64 308.176 581.849 308.176ZM581.559 300.371C581.055 300.371 580.645 300.541 580.328 300.881C580.018 301.221 579.818 301.707 579.73 302.34H583.264V302.138C583.252 301.575 583.1 301.142 582.807 300.837C582.514 300.526 582.098 300.371 581.559 300.371ZM592.36 305.372C592.36 305.062 592.205 304.818 591.895 304.643C591.59 304.461 591.098 304.3 590.418 304.159C588.156 303.685 587.025 302.724 587.025 301.276C587.025 300.433 587.374 299.729 588.071 299.167C588.774 298.599 589.691 298.314 590.822 298.314C592.029 298.314 592.993 298.599 593.714 299.167C594.44 299.735 594.804 300.474 594.804 301.382H592.264C592.264 301.019 592.146 300.72 591.912 300.485C591.678 300.245 591.312 300.125 590.813 300.125C590.386 300.125 590.055 300.222 589.82 300.415C589.586 300.608 589.469 300.854 589.469 301.153C589.469 301.435 589.601 301.663 589.864 301.839C590.134 302.009 590.585 302.158 591.218 302.287C591.851 302.41 592.384 302.551 592.817 302.709C594.159 303.201 594.83 304.054 594.83 305.267C594.83 306.134 594.458 306.837 593.714 307.376C592.97 307.909 592.009 308.176 590.831 308.176C590.034 308.176 589.325 308.035 588.704 307.754C588.089 307.467 587.605 307.077 587.254 306.585C586.902 306.087 586.727 305.551 586.727 304.977H589.135C589.158 305.428 589.325 305.773 589.636 306.014C589.946 306.254 590.362 306.374 590.884 306.374C591.37 306.374 591.736 306.283 591.982 306.102C592.234 305.914 592.36 305.671 592.36 305.372ZM602.169 307.033C601.542 307.795 600.675 308.176 599.567 308.176C598.548 308.176 597.769 307.883 597.229 307.297C596.696 306.711 596.424 305.853 596.412 304.722V298.49H598.952V304.634C598.952 305.624 599.403 306.119 600.306 306.119C601.167 306.119 601.759 305.82 602.081 305.223V298.49H604.63V308H602.239L602.169 307.033ZM609.227 308H606.678V294.5H609.227V308ZM614.368 296.152V298.49H615.994V300.354H614.368V305.1C614.368 305.451 614.436 305.703 614.57 305.855C614.705 306.008 614.963 306.084 615.344 306.084C615.625 306.084 615.874 306.063 616.091 306.022V307.947C615.593 308.1 615.08 308.176 614.553 308.176C612.771 308.176 611.863 307.276 611.828 305.478V300.354H610.439V298.49H611.828V296.152H614.368ZM622.92 308C622.803 307.771 622.718 307.487 622.665 307.147C622.05 307.833 621.25 308.176 620.266 308.176C619.334 308.176 618.561 307.906 617.945 307.367C617.336 306.828 617.031 306.148 617.031 305.328C617.031 304.32 617.403 303.547 618.147 303.008C618.897 302.469 619.979 302.196 621.391 302.19H622.56V301.646C622.56 301.206 622.445 300.854 622.217 300.591C621.994 300.327 621.64 300.195 621.153 300.195C620.726 300.195 620.389 300.298 620.143 300.503C619.902 300.708 619.782 300.989 619.782 301.347H617.242C617.242 300.796 617.412 300.286 617.752 299.817C618.092 299.349 618.572 298.982 619.193 298.719C619.814 298.449 620.512 298.314 621.285 298.314C622.457 298.314 623.386 298.61 624.071 299.202C624.763 299.788 625.108 300.614 625.108 301.681V305.803C625.114 306.705 625.24 307.388 625.486 307.851V308H622.92ZM620.819 306.233C621.194 306.233 621.54 306.151 621.856 305.987C622.173 305.817 622.407 305.592 622.56 305.311V303.676H621.61C620.339 303.676 619.662 304.115 619.58 304.994L619.571 305.144C619.571 305.46 619.683 305.721 619.905 305.926C620.128 306.131 620.433 306.233 620.819 306.233ZM626.664 303.175C626.664 301.692 626.995 300.512 627.657 299.633C628.325 298.754 629.236 298.314 630.391 298.314C631.316 298.314 632.081 298.66 632.685 299.352V294.5H635.233V308H632.939L632.816 306.989C632.184 307.78 631.369 308.176 630.373 308.176C629.254 308.176 628.354 307.736 627.675 306.857C627.001 305.973 626.664 304.745 626.664 303.175ZM629.204 303.359C629.204 304.25 629.359 304.933 629.67 305.407C629.98 305.882 630.432 306.119 631.023 306.119C631.809 306.119 632.362 305.788 632.685 305.126V301.373C632.368 300.711 631.82 300.38 631.041 300.38C629.816 300.38 629.204 301.373 629.204 303.359ZM636.807 303.157C636.807 302.214 636.988 301.373 637.352 300.635C637.715 299.896 638.236 299.325 638.916 298.921C639.602 298.517 640.396 298.314 641.298 298.314C642.581 298.314 643.627 298.707 644.436 299.492C645.25 300.277 645.704 301.344 645.798 302.691L645.815 303.342C645.815 304.801 645.408 305.973 644.594 306.857C643.779 307.736 642.687 308.176 641.315 308.176C639.944 308.176 638.849 307.736 638.028 306.857C637.214 305.979 636.807 304.783 636.807 303.271V303.157ZM639.347 303.342C639.347 304.244 639.517 304.936 639.856 305.416C640.196 305.891 640.683 306.128 641.315 306.128C641.931 306.128 642.411 305.894 642.757 305.425C643.103 304.95 643.275 304.194 643.275 303.157C643.275 302.272 643.103 301.587 642.757 301.101C642.411 300.614 641.925 300.371 641.298 300.371C640.677 300.371 640.196 300.614 639.856 301.101C639.517 301.581 639.347 302.328 639.347 303.342Z" fill="#00A7E1"/>
<rect x="1" y="279.34" width="287.865" height="212.66" rx="19" fill="#ECF9FD" stroke="#007EA7" stroke-width="2"/>
<g filter="url(#filter4_d)">
<path d="M122.359 326.93C122.378 325.767 122.51 324.849 122.754 324.176C122.998 323.502 123.496 322.755 124.248 321.934L126.167 319.957C126.988 319.029 127.398 318.033 127.398 316.969C127.398 315.943 127.129 315.142 126.592 314.566C126.055 313.98 125.274 313.687 124.248 313.687C123.252 313.687 122.452 313.951 121.846 314.478C121.241 315.006 120.938 315.714 120.938 316.602H118.228C118.247 315.02 118.809 313.746 119.912 312.779C121.026 311.803 122.471 311.314 124.248 311.314C126.094 311.314 127.53 311.812 128.555 312.808C129.59 313.795 130.108 315.152 130.108 316.881C130.108 318.59 129.317 320.274 127.735 321.934L126.138 323.516C125.425 324.307 125.069 325.445 125.069 326.93H122.359ZM122.242 331.573C122.242 331.134 122.373 330.767 122.637 330.474C122.911 330.172 123.311 330.02 123.838 330.02C124.366 330.02 124.766 330.172 125.039 330.474C125.313 330.767 125.45 331.134 125.45 331.573C125.45 332.013 125.313 332.379 125.039 332.672C124.766 332.955 124.366 333.097 123.838 333.097C123.311 333.097 122.911 332.955 122.637 332.672C122.373 332.379 122.242 332.013 122.242 331.573ZM137.41 325.929C137.433 324.573 137.587 323.502 137.871 322.716C138.156 321.93 138.737 321.058 139.615 320.101L141.853 317.794C142.81 316.711 143.289 315.549 143.289 314.307C143.289 313.111 142.976 312.177 142.349 311.505C141.722 310.821 140.811 310.479 139.615 310.479C138.453 310.479 137.518 310.787 136.812 311.402C136.106 312.017 135.752 312.843 135.752 313.88H132.591C132.613 312.035 133.269 310.548 134.556 309.42C135.855 308.28 137.541 307.711 139.615 307.711C141.768 307.711 143.443 308.292 144.639 309.454C145.847 310.605 146.451 312.188 146.451 314.205C146.451 316.199 145.528 318.164 143.682 320.101L141.819 321.947C140.988 322.869 140.572 324.197 140.572 325.929H137.41ZM137.273 331.346C137.273 330.833 137.427 330.406 137.735 330.064C138.054 329.711 138.521 329.535 139.136 329.535C139.751 329.535 140.218 329.711 140.537 330.064C140.856 330.406 141.016 330.833 141.016 331.346C141.016 331.859 140.856 332.286 140.537 332.628C140.218 332.958 139.751 333.123 139.136 333.123C138.521 333.123 138.054 332.958 137.735 332.628C137.427 332.286 137.273 331.859 137.273 331.346ZM153.081 326.93C153.101 325.767 153.233 324.849 153.477 324.176C153.721 323.502 154.219 322.755 154.971 321.934L156.89 319.957C157.71 319.029 158.12 318.033 158.12 316.969C158.12 315.943 157.852 315.142 157.315 314.566C156.778 313.98 155.996 313.687 154.971 313.687C153.975 313.687 153.174 313.951 152.569 314.478C151.963 315.006 151.661 315.714 151.661 316.602H148.951C148.97 315.02 149.532 313.746 150.635 312.779C151.748 311.803 153.194 311.314 154.971 311.314C156.817 311.314 158.252 311.812 159.278 312.808C160.313 313.795 160.83 315.152 160.83 316.881C160.83 318.59 160.039 320.274 158.457 321.934L156.861 323.516C156.148 324.307 155.791 325.445 155.791 326.93H153.081ZM152.964 331.573C152.964 331.134 153.096 330.767 153.36 330.474C153.633 330.172 154.034 330.02 154.561 330.02C155.088 330.02 155.489 330.172 155.762 330.474C156.036 330.767 156.172 331.134 156.172 331.573C156.172 332.013 156.036 332.379 155.762 332.672C155.489 332.955 155.088 333.097 154.561 333.097C154.034 333.097 153.633 332.955 153.36 332.672C153.096 332.379 152.964 332.013 152.964 331.573Z" fill="#00171F"/>
</g>
<g filter="url(#filter5_d)">
<path d="M234.442 370.777C234.442 382.596 223.615 392.373 210.004 392.373C196.394 392.373 185.567 382.596 185.567 370.777C185.567 358.958 196.394 349.181 210.004 349.181C223.615 349.181 234.442 358.958 234.442 370.777Z" fill="white" stroke="#2D2D2D" stroke-width="2"/>
<line x1="210.413" y1="393.373" x2="210.413" y2="457.052" stroke="#2D2D2D" stroke-width="2"/>
<line y1="-1" x2="11.2979" y2="-1" transform="matrix(0 1 1 0 201.131 365.642)" stroke="#2D2D2D" stroke-width="2"/>
<line y1="-1" x2="11.2979" y2="-1" transform="matrix(0 1 1 0 192.849 363.588)" stroke="#2D2D2D" stroke-width="2"/>
<line y1="-1" x2="56.0697" y2="-1" transform="matrix(-0.991745 0.128226 -0.169093 -0.9856 209.413 405.698)" stroke="black" stroke-width="2"/>
<path d="M135.468 418.023V410.833V378.48H153.806V418.023H135.468Z" fill="#8257E6" stroke="black"/>
</g>
<g filter="url(#filter6_d)">
<path d="M100.749 369.75C100.749 381.569 89.9224 391.346 76.3115 391.346C62.7006 391.346 51.8743 381.569 51.8743 369.75C51.8743 357.931 62.7006 348.154 76.3115 348.154C89.9224 348.154 100.749 357.931 100.749 369.75Z" fill="white" stroke="#2D2D2D" stroke-width="2"/>
<line x1="76.7199" y1="392.346" x2="76.7199" y2="456.025" stroke="#2D2D2D" stroke-width="2"/>
<line x1="83.8187" y1="363.587" x2="83.8187" y2="374.885" stroke="#2D2D2D" stroke-width="2"/>
<line x1="92.1005" y1="361.533" x2="92.1005" y2="372.831" stroke="#2D2D2D" stroke-width="2"/>
<line y1="-1" x2="43.8839" y2="-1" transform="matrix(0.997532 -0.0702137 0.0929947 0.995667 75.7199 410.833)" stroke="black" stroke-width="2"/>
<path d="M117.721 410.833L135.468 385.156V396.454C137.045 395.941 140.2 395.632 140.2 398.508C140.2 401.384 138.228 401.761 137.242 401.59H135.468V410.833H117.721Z" fill="#CE3030" stroke="black"/>
</g>
<path d="M202.88 303.315H200.779V308H198.143V295.203H202.897C204.409 295.203 205.575 295.54 206.396 296.214C207.216 296.888 207.626 297.84 207.626 299.07C207.626 299.943 207.436 300.673 207.055 301.259C206.68 301.839 206.108 302.302 205.341 302.647L208.109 307.877V308H205.279L202.88 303.315ZM200.779 301.18H202.906C203.568 301.18 204.081 301.013 204.444 300.679C204.808 300.339 204.989 299.873 204.989 299.281C204.989 298.678 204.816 298.203 204.471 297.857C204.131 297.512 203.606 297.339 202.897 297.339H200.779V301.18ZM213.849 308.176C212.454 308.176 211.317 307.748 210.438 306.893C209.565 306.037 209.129 304.897 209.129 303.474V303.228C209.129 302.272 209.313 301.42 209.683 300.67C210.052 299.914 210.573 299.334 211.247 298.93C211.927 298.52 212.7 298.314 213.567 298.314C214.868 298.314 215.891 298.725 216.635 299.545C217.385 300.365 217.76 301.528 217.76 303.034V304.071H211.704C211.786 304.692 212.032 305.19 212.442 305.565C212.858 305.94 213.383 306.128 214.016 306.128C214.994 306.128 215.759 305.773 216.31 305.064L217.558 306.462C217.177 307.001 216.661 307.423 216.011 307.728C215.36 308.026 214.64 308.176 213.849 308.176ZM213.559 300.371C213.055 300.371 212.645 300.541 212.328 300.881C212.018 301.221 211.818 301.707 211.73 302.34H215.264V302.138C215.252 301.575 215.1 301.142 214.807 300.837C214.514 300.526 214.098 300.371 213.559 300.371ZM224.36 305.372C224.36 305.062 224.205 304.818 223.895 304.643C223.59 304.461 223.098 304.3 222.418 304.159C220.156 303.685 219.025 302.724 219.025 301.276C219.025 300.433 219.374 299.729 220.071 299.167C220.774 298.599 221.691 298.314 222.822 298.314C224.029 298.314 224.993 298.599 225.714 299.167C226.44 299.735 226.804 300.474 226.804 301.382H224.264C224.264 301.019 224.146 300.72 223.912 300.485C223.678 300.245 223.312 300.125 222.813 300.125C222.386 300.125 222.055 300.222 221.82 300.415C221.586 300.608 221.469 300.854 221.469 301.153C221.469 301.435 221.601 301.663 221.864 301.839C222.134 302.009 222.585 302.158 223.218 302.287C223.851 302.41 224.384 302.551 224.817 302.709C226.159 303.201 226.83 304.054 226.83 305.267C226.83 306.134 226.458 306.837 225.714 307.376C224.97 307.909 224.009 308.176 222.831 308.176C222.034 308.176 221.325 308.035 220.704 307.754C220.089 307.467 219.605 307.077 219.254 306.585C218.902 306.087 218.727 305.551 218.727 304.977H221.135C221.158 305.428 221.325 305.773 221.636 306.014C221.946 306.254 222.362 306.374 222.884 306.374C223.37 306.374 223.736 306.283 223.982 306.102C224.234 305.914 224.36 305.671 224.36 305.372ZM234.169 307.033C233.542 307.795 232.675 308.176 231.567 308.176C230.548 308.176 229.769 307.883 229.229 307.297C228.696 306.711 228.424 305.853 228.412 304.722V298.49H230.952V304.634C230.952 305.624 231.403 306.119 232.306 306.119C233.167 306.119 233.759 305.82 234.081 305.223V298.49H236.63V308H234.239L234.169 307.033ZM241.227 308H238.678V294.5H241.227V308ZM246.368 296.152V298.49H247.994V300.354H246.368V305.1C246.368 305.451 246.436 305.703 246.57 305.855C246.705 306.008 246.963 306.084 247.344 306.084C247.625 306.084 247.874 306.063 248.091 306.022V307.947C247.593 308.1 247.08 308.176 246.553 308.176C244.771 308.176 243.863 307.276 243.828 305.478V300.354H242.439V298.49H243.828V296.152H246.368ZM254.92 308C254.803 307.771 254.718 307.487 254.665 307.147C254.05 307.833 253.25 308.176 252.266 308.176C251.334 308.176 250.561 307.906 249.945 307.367C249.336 306.828 249.031 306.148 249.031 305.328C249.031 304.32 249.403 303.547 250.147 303.008C250.897 302.469 251.979 302.196 253.391 302.19H254.56V301.646C254.56 301.206 254.445 300.854 254.217 300.591C253.994 300.327 253.64 300.195 253.153 300.195C252.726 300.195 252.389 300.298 252.143 300.503C251.902 300.708 251.782 300.989 251.782 301.347H249.242C249.242 300.796 249.412 300.286 249.752 299.817C250.092 299.349 250.572 298.982 251.193 298.719C251.814 298.449 252.512 298.314 253.285 298.314C254.457 298.314 255.386 298.61 256.071 299.202C256.763 299.788 257.108 300.614 257.108 301.681V305.803C257.114 306.705 257.24 307.388 257.486 307.851V308H254.92ZM252.819 306.233C253.194 306.233 253.54 306.151 253.856 305.987C254.173 305.817 254.407 305.592 254.56 305.311V303.676H253.61C252.339 303.676 251.662 304.115 251.58 304.994L251.571 305.144C251.571 305.46 251.683 305.721 251.905 305.926C252.128 306.131 252.433 306.233 252.819 306.233ZM258.664 303.175C258.664 301.692 258.995 300.512 259.657 299.633C260.325 298.754 261.236 298.314 262.391 298.314C263.316 298.314 264.081 298.66 264.685 299.352V294.5H267.233V308H264.939L264.816 306.989C264.184 307.78 263.369 308.176 262.373 308.176C261.254 308.176 260.354 307.736 259.675 306.857C259.001 305.973 258.664 304.745 258.664 303.175ZM261.204 303.359C261.204 304.25 261.359 304.933 261.67 305.407C261.98 305.882 262.432 306.119 263.023 306.119C263.809 306.119 264.362 305.788 264.685 305.126V301.373C264.368 300.711 263.82 300.38 263.041 300.38C261.816 300.38 261.204 301.373 261.204 303.359ZM268.807 303.157C268.807 302.214 268.988 301.373 269.352 300.635C269.715 299.896 270.236 299.325 270.916 298.921C271.602 298.517 272.396 298.314 273.298 298.314C274.581 298.314 275.627 298.707 276.436 299.492C277.25 300.277 277.704 301.344 277.798 302.691L277.815 303.342C277.815 304.801 277.408 305.973 276.594 306.857C275.779 307.736 274.687 308.176 273.315 308.176C271.944 308.176 270.849 307.736 270.028 306.857C269.214 305.979 268.807 304.783 268.807 303.271V303.157ZM271.347 303.342C271.347 304.244 271.517 304.936 271.856 305.416C272.196 305.891 272.683 306.128 273.315 306.128C273.931 306.128 274.411 305.894 274.757 305.425C275.103 304.95 275.275 304.194 275.275 303.157C275.275 302.272 275.103 301.587 274.757 301.101C274.411 300.614 273.925 300.371 273.298 300.371C272.677 300.371 272.196 300.614 271.856 301.101C271.517 301.581 271.347 302.328 271.347 303.342Z" fill="#00A7E1"/>
<rect x="370.135" y="1" width="287.865" height="212.66" rx="19" fill="#ECF9FD" stroke="#007EA7" stroke-width="2"/>
<g filter="url(#filter7_d)">
<rect x="378.417" y="30.7854" width="96.1993" height="50.3812" rx="9" fill="white" stroke="#2D2D2D" stroke-width="2"/>
<line x1="389.248" y1="54.9625" x2="463.785" y2="54.9625" stroke="black"/>
<line x1="389.248" y1="60.0979" x2="448.404" y2="60.0979" stroke="black"/>
<line x1="389.248" y1="65.2333" x2="463.785" y2="65.2333" stroke="black"/>
<line x1="389.248" y1="70.3687" x2="448.404" y2="70.3687" stroke="black"/>
<path d="M404.99 48V39.4688H407.398C408.141 39.4688 408.797 39.6328 409.367 39.9609C409.938 40.2891 410.377 40.7559 410.686 41.3613C410.998 41.9668 411.156 42.6621 411.16 43.4473V43.9922C411.16 44.7969 411.004 45.502 410.691 46.1074C410.383 46.7129 409.939 47.1777 409.361 47.502C408.787 47.8262 408.117 47.9922 407.352 48H404.99ZM406.115 40.3945V47.0801H407.299C408.166 47.0801 408.84 46.8105 409.32 46.2715C409.805 45.7324 410.047 44.9648 410.047 43.9688V43.4707C410.047 42.502 409.818 41.75 409.361 41.2148C408.908 40.6758 408.264 40.4023 407.428 40.3945H406.115ZM415.326 48.1172C414.467 48.1172 413.768 47.8359 413.229 47.2734C412.689 46.707 412.42 45.9512 412.42 45.0059V44.8066C412.42 44.1777 412.539 43.6172 412.777 43.125C413.02 42.6289 413.355 42.2422 413.785 41.9648C414.219 41.6836 414.688 41.543 415.191 41.543C416.016 41.543 416.656 41.8145 417.113 42.3574C417.57 42.9004 417.799 43.6777 417.799 44.6895V45.1406H413.504C413.52 45.7656 413.701 46.2715 414.049 46.6582C414.4 47.041 414.846 47.2324 415.385 47.2324C415.768 47.2324 416.092 47.1543 416.357 46.998C416.623 46.8418 416.855 46.6348 417.055 46.377L417.717 46.8926C417.186 47.709 416.389 48.1172 415.326 48.1172ZM415.191 42.4336C414.754 42.4336 414.387 42.5938 414.09 42.9141C413.793 43.2305 413.609 43.6758 413.539 44.25H416.715V44.168C416.684 43.6172 416.535 43.1914 416.27 42.8906C416.004 42.5859 415.645 42.4336 415.191 42.4336ZM422.75 46.3184C422.75 46.0254 422.639 45.7988 422.416 45.6387C422.197 45.4746 421.812 45.334 421.262 45.2168C420.715 45.0996 420.279 44.959 419.955 44.7949C419.635 44.6309 419.396 44.4355 419.24 44.209C419.088 43.9824 419.012 43.7129 419.012 43.4004C419.012 42.8809 419.23 42.4414 419.668 42.082C420.109 41.7227 420.672 41.543 421.355 41.543C422.074 41.543 422.656 41.7285 423.102 42.0996C423.551 42.4707 423.775 42.9453 423.775 43.5234H422.686C422.686 43.2266 422.559 42.9707 422.305 42.7559C422.055 42.541 421.738 42.4336 421.355 42.4336C420.961 42.4336 420.652 42.5195 420.43 42.6914C420.207 42.8633 420.096 43.0879 420.096 43.3652C420.096 43.627 420.199 43.8242 420.406 43.957C420.613 44.0898 420.986 44.2168 421.525 44.3379C422.068 44.459 422.508 44.6035 422.844 44.7715C423.18 44.9395 423.428 45.1426 423.588 45.3809C423.752 45.6152 423.834 45.9023 423.834 46.2422C423.834 46.8086 423.607 47.2637 423.154 47.6074C422.701 47.9473 422.113 48.1172 421.391 48.1172C420.883 48.1172 420.434 48.0273 420.043 47.8477C419.652 47.668 419.346 47.418 419.123 47.0977C418.904 46.7734 418.795 46.4238 418.795 46.0488H419.879C419.898 46.4121 420.043 46.7012 420.312 46.916C420.586 47.127 420.945 47.2324 421.391 47.2324C421.801 47.2324 422.129 47.1504 422.375 46.9863C422.625 46.8184 422.75 46.5957 422.75 46.3184ZM429.16 48C429.098 47.875 429.047 47.6523 429.008 47.332C428.504 47.8555 427.902 48.1172 427.203 48.1172C426.578 48.1172 426.064 47.9414 425.662 47.5898C425.264 47.2344 425.064 46.7852 425.064 46.2422C425.064 45.582 425.314 45.0703 425.814 44.707C426.318 44.3398 427.025 44.1562 427.936 44.1562H428.99V43.6582C428.99 43.2793 428.877 42.9785 428.65 42.7559C428.424 42.5293 428.09 42.416 427.648 42.416C427.262 42.416 426.938 42.5137 426.676 42.709C426.414 42.9043 426.283 43.1406 426.283 43.418H425.193C425.193 43.1016 425.305 42.7969 425.527 42.5039C425.754 42.207 426.059 41.9727 426.441 41.8008C426.828 41.6289 427.252 41.543 427.713 41.543C428.443 41.543 429.016 41.7266 429.43 42.0938C429.844 42.457 430.059 42.959 430.074 43.5996V46.5176C430.074 47.0996 430.148 47.5625 430.297 47.9062V48H429.16ZM427.361 47.1738C427.701 47.1738 428.023 47.0859 428.328 46.9102C428.633 46.7344 428.854 46.5059 428.99 46.2246V44.9238H428.141C426.812 44.9238 426.148 45.3125 426.148 46.0898C426.148 46.4297 426.262 46.6953 426.488 46.8867C426.715 47.0781 427.006 47.1738 427.361 47.1738ZM432.137 48V42.498H431.135V41.6602H432.137V41.1211C432.137 40.4141 432.338 39.8633 432.74 39.4688C433.146 39.0742 433.719 38.877 434.457 38.877C434.895 38.877 435.447 38.9961 436.115 39.2344L435.934 40.1484C435.445 39.9531 434.98 39.8555 434.539 39.8555C434.074 39.8555 433.738 39.9609 433.531 40.1719C433.328 40.3789 433.227 40.6914 433.227 41.1094V41.6602H434.521V42.498H433.227V48H432.137ZM436.654 48H435.564V41.6602H436.654V48ZM438.131 44.7715C438.131 44.1504 438.252 43.5918 438.494 43.0957C438.74 42.5996 439.08 42.2168 439.514 41.9473C439.951 41.6777 440.449 41.543 441.008 41.543C441.871 41.543 442.568 41.8418 443.1 42.4395C443.635 43.0371 443.902 43.832 443.902 44.8242V44.9004C443.902 45.5176 443.783 46.0723 443.545 46.5645C443.311 47.0527 442.973 47.4336 442.531 47.707C442.094 47.9805 441.59 48.1172 441.02 48.1172C440.16 48.1172 439.463 47.8184 438.928 47.2207C438.396 46.623 438.131 45.832 438.131 44.8477V44.7715ZM439.221 44.9004C439.221 45.6035 439.383 46.168 439.707 46.5938C440.035 47.0195 440.473 47.2324 441.02 47.2324C441.57 47.2324 442.008 47.0176 442.332 46.5879C442.656 46.1543 442.818 45.5488 442.818 44.7715C442.818 44.0762 442.652 43.5137 442.32 43.084C441.992 42.6504 441.555 42.4336 441.008 42.4336C440.473 42.4336 440.041 42.6465 439.713 43.0723C439.385 43.498 439.221 44.1074 439.221 44.9004Z" fill="black"/>
</g>
<g filter="url(#filter8_d)">
<line x1="546.08" y1="150.724" x2="546.08" y2="193.092" stroke="#003459" stroke-width="2"/>
<line x1="581.976" y1="136.602" x2="581.976" y2="177.557" stroke="#003459" stroke-width="2"/>
<line x1="462.867" y1="150.724" x2="462.867" y2="193.092" stroke="#003459" stroke-width="2"/>
<line x1="500.394" y1="136.602" x2="500.394" y2="177.557" stroke="#003459" stroke-width="2"/>
<path d="M585.055 136.602L498.578 136.602L460.235 152.137H546.711L585.055 136.602Z" fill="#00A7E1" stroke="#003459" stroke-width="2"/>
</g>
<g filter="url(#filter9_d)">
<path d="M633.889 92.4087C633.889 103.55 622.42 112.949 607.765 112.949C593.11 112.949 581.641 103.55 581.641 92.4087C581.641 81.2675 593.11 71.8687 607.765 71.8687C622.42 71.8687 633.889 81.2675 633.889 92.4087Z" fill="white" stroke="#2D2D2D" stroke-width="2"/>
<line x1="608.134" y1="113.949" x2="608.134" y2="174.652" stroke="#2D2D2D" stroke-width="2"/>
<line y1="-1" x2="13.5575" y2="-1" transform="matrix(0 1 1 0 604.046 85.9122)" stroke="#2D2D2D" stroke-width="2"/>
<line y1="-1" x2="13.5575" y2="-1" transform="matrix(0 1 1 0 593.765 83.4472)" stroke="#2D2D2D" stroke-width="2"/>
<path d="M607.718 118.573L568.063 101.318L548.969 88.9934" stroke="black" stroke-width="2"/>
</g>
<g filter="url(#filter10_d)">
<path d="M468.116 94.4629C468.116 105.604 456.648 115.003 441.992 115.003C427.337 115.003 415.868 105.604 415.868 94.4629C415.868 83.3216 427.337 73.9229 441.992 73.9229C456.648 73.9229 468.116 83.3216 468.116 94.4629Z" fill="white" stroke="#2D2D2D" stroke-width="2"/>
<line x1="442.362" y1="116.003" x2="442.362" y2="176.706" stroke="#2D2D2D" stroke-width="2"/>
<line x1="449.649" y1="88.9454" x2="449.649" y2="102.503" stroke="#2D2D2D" stroke-width="2"/>
<line x1="459.93" y1="86.4804" x2="459.93" y2="100.038" stroke="#2D2D2D" stroke-width="2"/>
<path d="M443.08 122.736H484.489L493.954 132.494M608.126 124.277L548.969 139.683" stroke="black" stroke-width="2"/>
<path d="M441.305 122.839L411.197 118.525L398.713 90.7942" stroke="black" stroke-width="2"/>
</g>
<path d="M546.188 23.7373C546.089 25.1143 545.579 26.1982 544.659 26.9893C543.745 27.7803 542.538 28.1758 541.038 28.1758C539.397 28.1758 538.105 27.625 537.162 26.5234C536.225 25.416 535.756 23.8984 535.756 21.9707V21.1885C535.756 19.958 535.973 18.874 536.406 17.9365C536.84 16.999 537.458 16.2812 538.261 15.7832C539.069 15.2793 540.007 15.0273 541.073 15.0273C542.55 15.0273 543.739 15.4229 544.642 16.2139C545.544 17.0049 546.065 18.1152 546.206 19.5449H543.569C543.505 18.7188 543.273 18.1211 542.875 17.752C542.482 17.377 541.882 17.1895 541.073 17.1895C540.194 17.1895 539.535 17.5059 539.096 18.1387C538.662 18.7656 538.439 19.7412 538.428 21.0654V22.0322C538.428 23.415 538.636 24.4258 539.052 25.0645C539.474 25.7031 540.136 26.0225 541.038 26.0225C541.853 26.0225 542.459 25.8379 542.857 25.4688C543.262 25.0938 543.493 24.5166 543.552 23.7373H546.188ZM547.357 23.1572C547.357 22.2139 547.539 21.373 547.902 20.6348C548.266 19.8965 548.787 19.3252 549.467 18.9209C550.152 18.5166 550.946 18.3145 551.849 18.3145C553.132 18.3145 554.178 18.707 554.986 19.4922C555.801 20.2773 556.255 21.3438 556.349 22.6914L556.366 23.3418C556.366 24.8008 555.959 25.9727 555.145 26.8574C554.33 27.7363 553.237 28.1758 551.866 28.1758C550.495 28.1758 549.399 27.7363 548.579 26.8574C547.765 25.9785 547.357 24.7832 547.357 23.2715V23.1572ZM549.897 23.3418C549.897 24.2441 550.067 24.9355 550.407 25.416C550.747 25.8906 551.233 26.1279 551.866 26.1279C552.481 26.1279 552.962 25.8936 553.308 25.4248C553.653 24.9502 553.826 24.1943 553.826 23.1572C553.826 22.2725 553.653 21.5869 553.308 21.1006C552.962 20.6143 552.476 20.3711 551.849 20.3711C551.228 20.3711 550.747 20.6143 550.407 21.1006C550.067 21.5811 549.897 22.3281 549.897 23.3418ZM560.312 18.4902L560.392 19.5537C561.065 18.7275 561.977 18.3145 563.125 18.3145C564.35 18.3145 565.19 18.7979 565.647 19.7646C566.315 18.7979 567.268 18.3145 568.504 18.3145C569.535 18.3145 570.303 18.6162 570.807 19.2197C571.311 19.8174 571.562 20.7197 571.562 21.9268V28H569.014V21.9355C569.014 21.3965 568.908 21.0039 568.697 20.7578C568.486 20.5059 568.114 20.3799 567.581 20.3799C566.819 20.3799 566.292 20.7432 565.999 21.4697L566.008 28H563.468V21.9443C563.468 21.3936 563.359 20.9951 563.143 20.749C562.926 20.5029 562.557 20.3799 562.035 20.3799C561.314 20.3799 560.793 20.6787 560.471 21.2764V28H557.931V18.4902H560.312ZM579.218 27.0332C578.591 27.7949 577.724 28.1758 576.616 28.1758C575.597 28.1758 574.817 27.8828 574.278 27.2969C573.745 26.7109 573.473 25.8525 573.461 24.7217V18.4902H576.001V24.6338C576.001 25.624 576.452 26.1191 577.354 26.1191C578.216 26.1191 578.808 25.8203 579.13 25.2227V18.4902H581.679V28H579.288L579.218 27.0332ZM585.933 18.4902L586.012 19.5889C586.691 18.7393 587.603 18.3145 588.745 18.3145C589.753 18.3145 590.503 18.6104 590.995 19.2021C591.487 19.7939 591.739 20.6787 591.751 21.8564V28H589.211V21.918C589.211 21.3789 589.094 20.9893 588.859 20.749C588.625 20.5029 588.235 20.3799 587.69 20.3799C586.976 20.3799 586.439 20.6846 586.082 21.2939V28H583.542V18.4902H585.933ZM596.365 28H593.816V18.4902H596.365V28ZM593.667 16.0293C593.667 15.6484 593.793 15.335 594.045 15.0889C594.303 14.8428 594.651 14.7197 595.091 14.7197C595.524 14.7197 595.87 14.8428 596.128 15.0889C596.386 15.335 596.515 15.6484 596.515 16.0293C596.515 16.416 596.383 16.7324 596.119 16.9785C595.861 17.2246 595.519 17.3477 595.091 17.3477C594.663 17.3477 594.317 17.2246 594.054 16.9785C593.796 16.7324 593.667 16.416 593.667 16.0293ZM602.421 26.1279C602.89 26.1279 603.271 25.999 603.563 25.7412C603.856 25.4834 604.009 25.1406 604.021 24.7129H606.402C606.396 25.3574 606.221 25.9492 605.875 26.4883C605.529 27.0215 605.055 27.4375 604.451 27.7363C603.854 28.0293 603.191 28.1758 602.465 28.1758C601.105 28.1758 600.033 27.7451 599.248 26.8838C598.463 26.0166 598.07 24.8213 598.07 23.2979V23.1309C598.07 21.666 598.46 20.4971 599.239 19.624C600.019 18.751 601.088 18.3145 602.447 18.3145C603.637 18.3145 604.589 18.6543 605.304 19.334C606.024 20.0078 606.391 20.9072 606.402 22.0322H604.021C604.009 21.54 603.856 21.1416 603.563 20.8369C603.271 20.5264 602.884 20.3711 602.403 20.3711C601.812 20.3711 601.363 20.5879 601.059 21.0215C600.76 21.4492 600.61 22.1465 600.61 23.1133V23.377C600.61 24.3555 600.76 25.0586 601.059 25.4863C601.357 25.9141 601.812 26.1279 602.421 26.1279ZM613.363 28C613.246 27.7715 613.161 27.4873 613.108 27.1475C612.493 27.833 611.693 28.1758 610.709 28.1758C609.777 28.1758 609.004 27.9062 608.389 27.3672C607.779 26.8281 607.475 26.1484 607.475 25.3281C607.475 24.3203 607.847 23.5469 608.591 23.0078C609.341 22.4688 610.422 22.1963 611.834 22.1904H613.003V21.6455C613.003 21.2061 612.889 20.8545 612.66 20.5908C612.438 20.3271 612.083 20.1953 611.597 20.1953C611.169 20.1953 610.832 20.2979 610.586 20.5029C610.346 20.708 610.226 20.9893 610.226 21.3467H607.686C607.686 20.7959 607.855 20.2861 608.195 19.8174C608.535 19.3486 609.016 18.9824 609.637 18.7188C610.258 18.4492 610.955 18.3145 611.729 18.3145C612.9 18.3145 613.829 18.6104 614.515 19.2021C615.206 19.7881 615.552 20.6143 615.552 21.6807V25.8027C615.558 26.7051 615.684 27.3877 615.93 27.8506V28H613.363ZM611.263 26.2334C611.638 26.2334 611.983 26.1514 612.3 25.9873C612.616 25.8174 612.851 25.5918 613.003 25.3105V23.6758H612.054C610.782 23.6758 610.105 24.1152 610.023 24.9941L610.015 25.1436C610.015 25.46 610.126 25.7207 610.349 25.9258C610.571 26.1309 610.876 26.2334 611.263 26.2334ZM621.458 26.1279C621.927 26.1279 622.308 25.999 622.601 25.7412C622.894 25.4834 623.046 25.1406 623.058 24.7129H625.439C625.434 25.3574 625.258 25.9492 624.912 26.4883C624.566 27.0215 624.092 27.4375 623.488 27.7363C622.891 28.0293 622.229 28.1758 621.502 28.1758C620.143 28.1758 619.07 27.7451 618.285 26.8838C617.5 26.0166 617.107 24.8213 617.107 23.2979V23.1309C617.107 21.666 617.497 20.4971 618.276 19.624C619.056 18.751 620.125 18.3145 621.484 18.3145C622.674 18.3145 623.626 18.6543 624.341 19.334C625.062 20.0078 625.428 20.9072 625.439 22.0322H623.058C623.046 21.54 622.894 21.1416 622.601 20.8369C622.308 20.5264 621.921 20.3711 621.44 20.3711C620.849 20.3711 620.4 20.5879 620.096 21.0215C619.797 21.4492 619.647 22.1465 619.647 23.1133V23.377C619.647 24.3555 619.797 25.0586 620.096 25.4863C620.395 25.9141 620.849 26.1279 621.458 26.1279ZM622.381 27.9473L622.284 28.457C623.163 28.6152 623.603 29.1221 623.603 29.9775C623.603 30.6221 623.333 31.1318 622.794 31.5068C622.261 31.8818 621.508 32.0693 620.535 32.0693L620.474 30.6016C621.13 30.6016 621.458 30.3643 621.458 29.8896C621.458 29.6436 621.358 29.4736 621.159 29.3799C620.966 29.292 620.649 29.2334 620.21 29.2041L620.482 27.9473H622.381ZM632.4 28C632.283 27.7715 632.198 27.4873 632.146 27.1475C631.53 27.833 630.73 28.1758 629.746 28.1758C628.814 28.1758 628.041 27.9062 627.426 27.3672C626.816 26.8281 626.512 26.1484 626.512 25.3281C626.512 24.3203 626.884 23.5469 627.628 23.0078C628.378 22.4688 629.459 22.1963 630.871 22.1904H632.04V21.6455C632.04 21.2061 631.926 20.8545 631.697 20.5908C631.475 20.3271 631.12 20.1953 630.634 20.1953C630.206 20.1953 629.869 20.2979 629.623 20.5029C629.383 20.708 629.263 20.9893 629.263 21.3467H626.723C626.723 20.7959 626.893 20.2861 627.232 19.8174C627.572 19.3486 628.053 18.9824 628.674 18.7188C629.295 18.4492 629.992 18.3145 630.766 18.3145C631.938 18.3145 632.866 18.6104 633.552 19.2021C634.243 19.7881 634.589 20.6143 634.589 21.6807V25.8027C634.595 26.7051 634.721 27.3877 634.967 27.8506V28H632.4ZM630.3 26.2334C630.675 26.2334 631.021 26.1514 631.337 25.9873C631.653 25.8174 631.888 25.5918 632.04 25.3105V23.6758H631.091C629.819 23.6758 629.143 24.1152 629.061 24.9941L629.052 25.1436C629.052 25.46 629.163 25.7207 629.386 25.9258C629.608 26.1309 629.913 26.2334 630.3 26.2334ZM634.062 14.6143C634.062 15.2764 633.868 15.833 633.481 16.2842C633.095 16.7295 632.623 16.9521 632.066 16.9521C631.844 16.9521 631.645 16.9287 631.469 16.8818C631.299 16.8291 631.062 16.7207 630.757 16.5566C630.452 16.3926 630.232 16.293 630.098 16.2578C629.963 16.2168 629.816 16.1963 629.658 16.1963C629.453 16.1963 629.277 16.2695 629.131 16.416C628.99 16.5625 628.92 16.7705 628.92 17.04L627.443 16.9521C627.443 16.3018 627.634 15.748 628.015 15.291C628.401 14.834 628.873 14.6055 629.43 14.6055C629.605 14.6055 629.77 14.6289 629.922 14.6758C630.08 14.7168 630.335 14.8223 630.687 14.9922C631.038 15.1621 631.281 15.2646 631.416 15.2998C631.551 15.335 631.691 15.3525 631.838 15.3525C632.043 15.3525 632.219 15.2822 632.365 15.1416C632.518 14.9951 632.594 14.7871 632.594 14.5176L634.062 14.6143ZM636.145 23.1572C636.145 22.2139 636.326 21.373 636.689 20.6348C637.053 19.8965 637.574 19.3252 638.254 18.9209C638.939 18.5166 639.733 18.3145 640.636 18.3145C641.919 18.3145 642.965 18.707 643.773 19.4922C644.588 20.2773 645.042 21.3438 645.136 22.6914L645.153 23.3418C645.153 24.8008 644.746 25.9727 643.932 26.8574C643.117 27.7363 642.024 28.1758 640.653 28.1758C639.282 28.1758 638.187 27.7363 637.366 26.8574C636.552 25.9785 636.145 24.7832 636.145 23.2715V23.1572ZM638.685 23.3418C638.685 24.2441 638.854 24.9355 639.194 25.416C639.534 25.8906 640.021 26.1279 640.653 26.1279C641.269 26.1279 641.749 25.8936 642.095 25.4248C642.44 24.9502 642.613 24.1943 642.613 23.1572C642.613 22.2725 642.44 21.5869 642.095 21.1006C641.749 20.6143 641.263 20.3711 640.636 20.3711C640.015 20.3711 639.534 20.6143 639.194 21.1006C638.854 21.5811 638.685 22.3281 638.685 23.3418Z" fill="#00A7E1"/>
<rect x="1" y="1" width="287.865" height="212.66" rx="19" fill="#ECF9FD" stroke="#007EA7" stroke-width="2"/>
<g filter="url(#filter11_d)">
<rect x="20" y="24" width="174.285" height="94.5458" rx="9" fill="white" stroke="#2D2D2D" stroke-width="2"/>
<path d="M63.5405 49.4042V31.6307H68.5576C70.1039 31.6307 71.471 31.9725 72.6592 32.6561C73.8473 33.3397 74.7629 34.3122 75.4058 35.5736C76.0568 36.835 76.3864 38.2836 76.3945 39.9193V41.0546C76.3945 42.731 76.069 44.1999 75.418 45.4613C74.7751 46.7227 73.8514 47.6911 72.647 48.3666C71.4507 49.042 70.055 49.3879 68.46 49.4042H63.5405ZM65.8843 33.5594V47.4877H68.3501C70.1568 47.4877 71.5606 46.9261 72.5615 45.8031C73.5707 44.6801 74.0752 43.0809 74.0752 41.0057V39.9681C74.0752 37.9499 73.5991 36.3833 72.647 35.2684C71.703 34.1454 70.3602 33.5757 68.6187 33.5594H65.8843ZM85.0737 49.6483C83.2834 49.6483 81.8267 49.0624 80.7036 47.8905C79.5806 46.7105 79.0191 45.1358 79.0191 43.1664V42.7513C79.0191 41.4411 79.2673 40.2733 79.7637 39.2479C80.2682 38.2144 80.9681 37.4087 81.8633 36.8309C82.7666 36.245 83.7432 35.952 84.793 35.952C86.5101 35.952 87.8447 36.5176 88.7969 37.6488C89.749 38.78 90.2251 40.3995 90.2251 42.5072V43.4471H81.2774C81.3099 44.7492 81.6883 45.8031 82.4126 46.6088C83.145 47.4063 84.0728 47.8051 85.1958 47.8051C85.9933 47.8051 86.6688 47.6423 87.2222 47.3168C87.7756 46.9913 88.2598 46.5599 88.6748 46.0228L90.0542 47.097C88.9474 48.7979 87.2873 49.6483 85.0737 49.6483ZM84.793 37.8075C83.8815 37.8075 83.1166 38.1412 82.4981 38.8085C81.8796 39.4677 81.4971 40.3954 81.3506 41.5917H87.9668V41.4208C87.9017 40.2733 87.5925 39.3863 87.0391 38.7596C86.4857 38.1249 85.737 37.8075 84.793 37.8075ZM100.54 45.9008C100.54 45.2904 100.308 44.8184 99.8443 44.4847C99.3885 44.1429 98.5869 43.85 97.4395 43.6058C96.3001 43.3617 95.3928 43.0687 94.7173 42.7269C94.05 42.3851 93.5536 41.9782 93.228 41.5062C92.9107 41.0342 92.752 40.4727 92.752 39.8217C92.752 38.7393 93.2077 37.8238 94.1192 37.0751C95.0388 36.3264 96.2106 35.952 97.6348 35.952C99.1322 35.952 100.345 36.3386 101.272 37.1117C102.208 37.8848 102.676 38.8736 102.676 40.078H100.406C100.406 39.4595 100.141 38.9265 99.6123 38.4789C99.0915 38.0313 98.4323 37.8075 97.6348 37.8075C96.8128 37.8075 96.1699 37.9865 95.7061 38.3446C95.2422 38.7027 95.0103 39.1706 95.0103 39.7484C95.0103 40.2937 95.2259 40.7046 95.6572 40.9813C96.0886 41.258 96.8657 41.5225 97.9888 41.7748C99.12 42.0271 100.035 42.3282 100.735 42.6781C101.435 43.028 101.952 43.4512 102.286 43.9476C102.627 44.4359 102.798 45.0341 102.798 45.7421C102.798 46.9221 102.326 47.8702 101.382 48.5863C100.438 49.2943 99.2136 49.6483 97.708 49.6483C96.6501 49.6483 95.7142 49.4611 94.9004 49.0868C94.0866 48.7124 93.4478 48.1916 92.9839 47.5243C92.5282 46.8488 92.3003 46.1205 92.3003 45.3392H94.5586C94.5993 46.0961 94.9004 46.6983 95.4619 47.1459C96.0316 47.5853 96.7803 47.8051 97.708 47.8051C98.5625 47.8051 99.2461 47.6342 99.7588 47.2924C100.28 46.9424 100.54 46.4786 100.54 45.9008ZM113.895 49.4042C113.764 49.1438 113.659 48.6799 113.577 48.0126C112.527 49.1031 111.274 49.6483 109.817 49.6483C108.515 49.6483 107.445 49.2821 106.607 48.5497C105.777 47.8091 105.362 46.8733 105.362 45.7421C105.362 44.3667 105.883 43.3007 106.924 42.5438C107.974 41.7788 109.447 41.3964 111.343 41.3964H113.541V40.3588C113.541 39.5694 113.305 38.9427 112.833 38.4789C112.361 38.0069 111.665 37.7709 110.745 37.7709C109.939 37.7709 109.264 37.9743 108.719 38.3812C108.174 38.7881 107.901 39.2805 107.901 39.8583H105.63C105.63 39.1991 105.862 38.5643 106.326 37.954C106.798 37.3355 107.433 36.8472 108.23 36.4891C109.036 36.1311 109.919 35.952 110.879 35.952C112.401 35.952 113.593 36.3345 114.456 37.0995C115.319 37.8563 115.766 38.9021 115.799 40.2367V46.3158C115.799 47.5284 115.953 48.4927 116.263 49.2089V49.4042H113.895ZM110.147 47.683C110.855 47.683 111.526 47.4999 112.161 47.1337C112.796 46.7675 113.256 46.2914 113.541 45.7054V42.9955H111.771C109.004 42.9955 107.62 43.8052 107.62 45.4247C107.62 46.1327 107.856 46.6861 108.328 47.0848C108.8 47.4836 109.406 47.683 110.147 47.683ZM120.096 49.4042V37.9418H118.008V36.1962H120.096V35.0731C120.096 33.6001 120.515 32.4527 121.353 31.6307C122.199 30.8088 123.392 30.3978 124.93 30.3978C125.841 30.3978 126.993 30.646 128.384 31.1425L128.006 33.0468C126.989 32.6399 126.02 32.4364 125.101 32.4364C124.132 32.4364 123.432 32.6561 123.001 33.0956C122.578 33.5269 122.366 34.1779 122.366 35.0487V36.1962H125.064V37.9418H122.366V49.4042H120.096ZM129.507 49.4042H127.237V36.1962H129.507V49.4042ZM132.584 42.6781C132.584 41.3842 132.836 40.2204 133.34 39.1869C133.853 38.1534 134.561 37.3558 135.464 36.7943C136.376 36.2328 137.413 35.952 138.577 35.952C140.376 35.952 141.828 36.5746 142.935 37.8197C144.05 39.0648 144.607 40.7209 144.607 42.788V42.9467C144.607 44.2325 144.359 45.3881 143.863 46.4135C143.375 47.4307 142.671 48.2242 141.751 48.7938C140.84 49.3635 139.79 49.6483 138.602 49.6483C136.811 49.6483 135.359 49.0258 134.244 47.7806C133.137 46.5355 132.584 44.8876 132.584 42.8368V42.6781ZM134.854 42.9467C134.854 44.4115 135.192 45.5874 135.867 46.4745C136.551 47.3615 137.462 47.8051 138.602 47.8051C139.749 47.8051 140.66 47.3575 141.336 46.4623C142.011 45.559 142.349 44.2976 142.349 42.6781C142.349 41.2295 142.003 40.0577 141.312 39.1625C140.628 38.2592 139.716 37.8075 138.577 37.8075C137.462 37.8075 136.563 38.251 135.879 39.1381C135.196 40.0251 134.854 41.2946 134.854 42.9467Z" fill="black"/>
<line x1="27.4775" y1="57.9042" x2="177.478" y2="57.9042" stroke="black"/>
<line x1="27.4775" y1="62.9042" x2="146.525" y2="62.9042" stroke="black"/>
<line x1="27.4775" y1="67.9042" x2="177.478" y2="67.9042" stroke="black"/>
<line x1="27.4775" y1="72.9042" x2="146.525" y2="72.9042" stroke="black"/>
<line x1="28.4775" y1="80.9042" x2="178.478" y2="80.9042" stroke="black"/>
<line x1="28.4775" y1="85.9042" x2="147.525" y2="85.9042" stroke="black"/>
<line x1="28.4775" y1="90.9042" x2="178.478" y2="90.9042" stroke="black"/>
<line x1="28.4775" y1="95.9042" x2="147.525" y2="95.9042" stroke="black"/>
</g>
<g filter="url(#filter12_d)">
<path d="M226.539 115.766C226.539 124.952 217.397 132.716 205.689 132.716C193.981 132.716 184.839 124.952 184.839 115.766C184.839 106.58 193.981 98.8159 205.689 98.8159C217.397 98.8159 226.539 106.58 226.539 115.766Z" fill="white" stroke="#2D2D2D" stroke-width="2"/>
<line x1="206.181" y1="133.716" x2="206.181" y2="184.302" stroke="#2D2D2D" stroke-width="2"/>
<line y1="-1" x2="8.88844" y2="-1" transform="matrix(0.0460536 0.998939 -0.999396 0.0347581 192.819 105.581)" stroke="#2D2D2D" stroke-width="2"/>
<path d="M205.651 147.327L183.171 142.705L187.904 125.758" stroke="black" stroke-width="2"/>
</g>
<g filter="url(#filter13_d)">
<path d="M111.7 114.95C111.7 124.136 102.558 131.9 90.8499 131.9C79.1419 131.9 70 124.136 70 114.95C70 105.764 79.1419 98 90.8499 98C102.558 98 111.7 105.764 111.7 114.95Z" fill="white" stroke="#2D2D2D" stroke-width="2"/>
<line x1="91.3418" y1="132.9" x2="91.3418" y2="183.486" stroke="#2D2D2D" stroke-width="2"/>
</g>
<path d="M223.779 23.4912V28H221.143V15.2031H226.135C227.096 15.2031 227.939 15.3789 228.666 15.7305C229.398 16.082 229.961 16.583 230.354 17.2334C230.746 17.8779 230.942 18.6133 230.942 19.4395C230.942 20.6934 230.512 21.6836 229.65 22.4102C228.795 23.1309 227.608 23.4912 226.091 23.4912H223.779ZM223.779 21.3555H226.135C226.832 21.3555 227.362 21.1914 227.726 20.8633C228.095 20.5352 228.279 20.0664 228.279 19.457C228.279 18.8301 228.095 18.3232 227.726 17.9365C227.356 17.5498 226.847 17.3506 226.196 17.3389H223.779V21.3555ZM237.938 20.8721C237.593 20.8252 237.288 20.8018 237.024 20.8018C236.063 20.8018 235.434 21.127 235.135 21.7773V28H232.595V18.4902H234.994L235.064 19.624C235.574 18.751 236.28 18.3145 237.183 18.3145C237.464 18.3145 237.728 18.3525 237.974 18.4287L237.938 20.8721ZM238.457 23.1572C238.457 22.2139 238.639 21.373 239.002 20.6348C239.365 19.8965 239.887 19.3252 240.566 18.9209C241.252 18.5166 242.046 18.3145 242.948 18.3145C244.231 18.3145 245.277 18.707 246.086 19.4922C246.9 20.2773 247.354 21.3438 247.448 22.6914L247.466 23.3418C247.466 24.8008 247.059 25.9727 246.244 26.8574C245.43 27.7363 244.337 28.1758 242.966 28.1758C241.595 28.1758 240.499 27.7363 239.679 26.8574C238.864 25.9785 238.457 24.7832 238.457 23.2715V23.1572ZM240.997 23.3418C240.997 24.2441 241.167 24.9355 241.507 25.416C241.847 25.8906 242.333 26.1279 242.966 26.1279C243.581 26.1279 244.062 25.8936 244.407 25.4248C244.753 24.9502 244.926 24.1943 244.926 23.1572C244.926 22.2725 244.753 21.5869 244.407 21.1006C244.062 20.6143 243.575 20.3711 242.948 20.3711C242.327 20.3711 241.847 20.6143 241.507 21.1006C241.167 21.5811 240.997 22.3281 240.997 23.3418ZM251.72 18.4902V28.5186C251.72 29.5674 251.441 30.3818 250.885 30.9619C250.328 31.5479 249.525 31.8408 248.477 31.8408C248.037 31.8408 247.618 31.791 247.22 31.6914V29.6787C247.524 29.7314 247.791 29.7578 248.02 29.7578C248.787 29.7578 249.171 29.3506 249.171 28.5361V18.4902H251.72ZM248.969 16.0293C248.969 15.6484 249.095 15.335 249.347 15.0889C249.604 14.8428 249.953 14.7197 250.393 14.7197C250.832 14.7197 251.178 14.8428 251.43 15.0889C251.688 15.335 251.816 15.6484 251.816 16.0293C251.816 16.416 251.685 16.7324 251.421 16.9785C251.163 17.2246 250.82 17.3477 250.393 17.3477C249.965 17.3477 249.619 17.2246 249.355 16.9785C249.098 16.7324 248.969 16.416 248.969 16.0293ZM258.083 28.1758C256.688 28.1758 255.552 27.748 254.673 26.8926C253.8 26.0371 253.363 24.8975 253.363 23.4736V23.2275C253.363 22.2725 253.548 21.4199 253.917 20.6699C254.286 19.9141 254.808 19.334 255.481 18.9297C256.161 18.5195 256.935 18.3145 257.802 18.3145C259.103 18.3145 260.125 18.7246 260.869 19.5449C261.619 20.3652 261.994 21.5283 261.994 23.0342V24.0713H255.938C256.021 24.6924 256.267 25.1904 256.677 25.5654C257.093 25.9404 257.617 26.1279 258.25 26.1279C259.229 26.1279 259.993 25.7734 260.544 25.0645L261.792 26.4619C261.411 27.001 260.896 27.4229 260.245 27.7275C259.595 28.0264 258.874 28.1758 258.083 28.1758ZM257.793 20.3711C257.289 20.3711 256.879 20.541 256.562 20.8809C256.252 21.2207 256.053 21.707 255.965 22.3398H259.498V22.1377C259.486 21.5752 259.334 21.1416 259.041 20.8369C258.748 20.5264 258.332 20.3711 257.793 20.3711ZM266.485 16.1523V18.4902H268.111V20.3535H266.485V25.0996C266.485 25.4512 266.553 25.7031 266.688 25.8555C266.822 26.0078 267.08 26.084 267.461 26.084C267.742 26.084 267.991 26.0635 268.208 26.0225V27.9473C267.71 28.0996 267.197 28.1758 266.67 28.1758C264.889 28.1758 263.98 27.2764 263.945 25.4775V20.3535H262.557V18.4902H263.945V16.1523H266.485ZM268.867 23.1572C268.867 22.2139 269.049 21.373 269.412 20.6348C269.775 19.8965 270.297 19.3252 270.977 18.9209C271.662 18.5166 272.456 18.3145 273.358 18.3145C274.642 18.3145 275.688 18.707 276.496 19.4922C277.311 20.2773 277.765 21.3438 277.858 22.6914L277.876 23.3418C277.876 24.8008 277.469 25.9727 276.654 26.8574C275.84 27.7363 274.747 28.1758 273.376 28.1758C272.005 28.1758 270.909 27.7363 270.089 26.8574C269.274 25.9785 268.867 24.7832 268.867 23.2715V23.1572ZM271.407 23.3418C271.407 24.2441 271.577 24.9355 271.917 25.416C272.257 25.8906 272.743 26.1279 273.376 26.1279C273.991 26.1279 274.472 25.8936 274.817 25.4248C275.163 24.9502 275.336 24.1943 275.336 23.1572C275.336 22.2725 275.163 21.5869 274.817 21.1006C274.472 20.6143 273.985 20.3711 273.358 20.3711C272.737 20.3711 272.257 20.6143 271.917 21.1006C271.577 21.5811 271.407 22.3281 271.407 23.3418Z" fill="#00A7E1"/>
<defs>
<filter id="filter0_d" x="321.908" y="84.9081" width="27.0919" height="46.1838" filterUnits="userSpaceOnUse" color-interpolation-filters="sRGB">
<feFlood flood-opacity="0" result="BackgroundImageFix"/>
<feColorMatrix in="SourceAlpha" type="matrix" values="0 0 0 0 0 0 0 0 0 0 0 0 0 0 0 0 0 0 127 0"/>
<feOffset dy="1"/>
<feGaussianBlur stdDeviation="0.5"/>
<feColorMatrix type="matrix" values="0 0 0 0 0 0 0 0 0 0 0 0 0 0 0 0 0 0 0.25 0"/>
<feBlend mode="normal" in2="BackgroundImageFix" result="effect1_dropShadow"/>
<feBlend mode="normal" in="SourceGraphic" in2="effect1_dropShadow" result="shape"/>
</filter>
<filter id="filter1_d" x="489.908" y="228.908" width="46.1838" height="27.0919" filterUnits="userSpaceOnUse" color-interpolation-filters="sRGB">
<feFlood flood-opacity="0" result="BackgroundImageFix"/>
<feColorMatrix in="SourceAlpha" type="matrix" values="0 0 0 0 0 0 0 0 0 0 0 0 0 0 0 0 0 0 127 0"/>
<feOffset dy="1"/>
<feGaussianBlur stdDeviation="0.5"/>
<feColorMatrix type="matrix" values="0 0 0 0 0 0 0 0 0 0 0 0 0 0 0 0 0 0 0.25 0"/>
<feBlend mode="normal" in2="BackgroundImageFix" result="effect1_dropShadow"/>
<feBlend mode="normal" in="SourceGraphic" in2="effect1_dropShadow" result="shape"/>
</filter>
<filter id="filter2_d" x="116.908" y="229.908" width="46.1838" height="27.0919" filterUnits="userSpaceOnUse" color-interpolation-filters="sRGB">
<feFlood flood-opacity="0" result="BackgroundImageFix"/>
<feColorMatrix in="SourceAlpha" type="matrix" values="0 0 0 0 0 0 0 0 0 0 0 0 0 0 0 0 0 0 127 0"/>
<feOffset dy="1"/>
<feGaussianBlur stdDeviation="0.5"/>
<feColorMatrix type="matrix" values="0 0 0 0 0 0 0 0 0 0 0 0 0 0 0 0 0 0 0.25 0"/>
<feBlend mode="normal" in2="BackgroundImageFix" result="effect1_dropShadow"/>
<feBlend mode="normal" in="SourceGraphic" in2="effect1_dropShadow" result="shape"/>
</filter>
<filter id="filter3_d" x="492" y="333" width="45" height="39" filterUnits="userSpaceOnUse" color-interpolation-filters="sRGB">
<feFlood flood-opacity="0" result="BackgroundImageFix"/>
<feColorMatrix in="SourceAlpha" type="matrix" values="0 0 0 0 0 0 0 0 0 0 0 0 0 0 0 0 0 0 127 0"/>
<feOffset dy="1"/>
<feGaussianBlur stdDeviation="0.5"/>
<feColorMatrix type="matrix" values="0 0 0 0 0 0 0 0 0 0 0 0 0 0 0 0 0 0 0.25 0"/>
<feBlend mode="normal" in2="BackgroundImageFix" result="effect1_dropShadow"/>
<feBlend mode="normal" in="SourceGraphic" in2="effect1_dropShadow" result="shape"/>
</filter>
<filter id="filter4_d" x="117.228" y="307.711" width="44.6025" height="27.4126" filterUnits="userSpaceOnUse" color-interpolation-filters="sRGB">
<feFlood flood-opacity="0" result="BackgroundImageFix"/>
<feColorMatrix in="SourceAlpha" type="matrix" values="0 0 0 0 0 0 0 0 0 0 0 0 0 0 0 0 0 0 127 0"/>
<feOffset dy="1"/>
<feGaussianBlur stdDeviation="0.5"/>
<feColorMatrix type="matrix" values="0 0 0 0 0 0 0 0 0 0 0 0 0 0 0 0 0 0 0.25 0"/>
<feBlend mode="normal" in2="BackgroundImageFix" result="effect1_dropShadow"/>
<feBlend mode="normal" in="SourceGraphic" in2="effect1_dropShadow" result="shape"/>
</filter>
<filter id="filter5_d" x="133.968" y="348.181" width="102.474" height="110.871" filterUnits="userSpaceOnUse" color-interpolation-filters="sRGB">
<feFlood flood-opacity="0" result="BackgroundImageFix"/>
<feColorMatrix in="SourceAlpha" type="matrix" values="0 0 0 0 0 0 0 0 0 0 0 0 0 0 0 0 0 0 127 0"/>
<feOffset dy="1"/>
<feGaussianBlur stdDeviation="0.5"/>
<feColorMatrix type="matrix" values="0 0 0 0 0 0 0 0 0 0 0 0 0 0 0 0 0 0 0.25 0"/>
<feBlend mode="normal" in2="BackgroundImageFix" result="effect1_dropShadow"/>
<feBlend mode="normal" in="SourceGraphic" in2="effect1_dropShadow" result="shape"/>
</filter>
<filter id="filter6_d" x="49.8743" y="347.154" width="91.8258" height="110.871" filterUnits="userSpaceOnUse" color-interpolation-filters="sRGB">
<feFlood flood-opacity="0" result="BackgroundImageFix"/>
<feColorMatrix in="SourceAlpha" type="matrix" values="0 0 0 0 0 0 0 0 0 0 0 0 0 0 0 0 0 0 127 0"/>
<feOffset dy="1"/>
<feGaussianBlur stdDeviation="0.5"/>
<feColorMatrix type="matrix" values="0 0 0 0 0 0 0 0 0 0 0 0 0 0 0 0 0 0 0.25 0"/>
<feBlend mode="normal" in2="BackgroundImageFix" result="effect1_dropShadow"/>
<feBlend mode="normal" in="SourceGraphic" in2="effect1_dropShadow" result="shape"/>
</filter>
<filter id="filter7_d" x="376.417" y="29.7854" width="100.199" height="54.3812" filterUnits="userSpaceOnUse" color-interpolation-filters="sRGB">
<feFlood flood-opacity="0" result="BackgroundImageFix"/>
<feColorMatrix in="SourceAlpha" type="matrix" values="0 0 0 0 0 0 0 0 0 0 0 0 0 0 0 0 0 0 127 0"/>
<feOffset dy="1"/>
<feGaussianBlur stdDeviation="0.5"/>
<feColorMatrix type="matrix" values="0 0 0 0 0 0 0 0 0 0 0 0 0 0 0 0 0 0 0.25 0"/>
<feBlend mode="normal" in2="BackgroundImageFix" result="effect1_dropShadow"/>
<feBlend mode="normal" in="SourceGraphic" in2="effect1_dropShadow" result="shape"/>
</filter>
<filter id="filter8_d" x="458.86" y="135.602" width="127.571" height="59.4896" filterUnits="userSpaceOnUse" color-interpolation-filters="sRGB">
<feFlood flood-opacity="0" result="BackgroundImageFix"/>
<feColorMatrix in="SourceAlpha" type="matrix" values="0 0 0 0 0 0 0 0 0 0 0 0 0 0 0 0 0 0 127 0"/>
<feOffset dy="1"/>
<feGaussianBlur stdDeviation="0.5"/>
<feColorMatrix type="matrix" values="0 0 0 0 0 0 0 0 0 0 0 0 0 0 0 0 0 0 0.25 0"/>
<feBlend mode="normal" in2="BackgroundImageFix" result="effect1_dropShadow"/>
<feBlend mode="normal" in="SourceGraphic" in2="effect1_dropShadow" result="shape"/>
</filter>
<filter id="filter9_d" x="547.427" y="70.8687" width="88.4616" height="105.783" filterUnits="userSpaceOnUse" color-interpolation-filters="sRGB">
<feFlood flood-opacity="0" result="BackgroundImageFix"/>
<feColorMatrix in="SourceAlpha" type="matrix" values="0 0 0 0 0 0 0 0 0 0 0 0 0 0 0 0 0 0 127 0"/>
<feOffset dy="1"/>
<feGaussianBlur stdDeviation="0.5"/>
<feColorMatrix type="matrix" values="0 0 0 0 0 0 0 0 0 0 0 0 0 0 0 0 0 0 0.25 0"/>
<feBlend mode="normal" in2="BackgroundImageFix" result="effect1_dropShadow"/>
<feBlend mode="normal" in="SourceGraphic" in2="effect1_dropShadow" result="shape"/>
</filter>
<filter id="filter10_d" x="396.801" y="72.9229" width="212.577" height="105.783" filterUnits="userSpaceOnUse" color-interpolation-filters="sRGB">
<feFlood flood-opacity="0" result="BackgroundImageFix"/>
<feColorMatrix in="SourceAlpha" type="matrix" values="0 0 0 0 0 0 0 0 0 0 0 0 0 0 0 0 0 0 127 0"/>
<feOffset dy="1"/>
<feGaussianBlur stdDeviation="0.5"/>
<feColorMatrix type="matrix" values="0 0 0 0 0 0 0 0 0 0 0 0 0 0 0 0 0 0 0.25 0"/>
<feBlend mode="normal" in2="BackgroundImageFix" result="effect1_dropShadow"/>
<feBlend mode="normal" in="SourceGraphic" in2="effect1_dropShadow" result="shape"/>
</filter>
<filter id="filter11_d" x="18" y="23" width="178.285" height="98.5458" filterUnits="userSpaceOnUse" color-interpolation-filters="sRGB">
<feFlood flood-opacity="0" result="BackgroundImageFix"/>
<feColorMatrix in="SourceAlpha" type="matrix" values="0 0 0 0 0 0 0 0 0 0 0 0 0 0 0 0 0 0 127 0"/>
<feOffset dy="1"/>
<feGaussianBlur stdDeviation="0.5"/>
<feColorMatrix type="matrix" values="0 0 0 0 0 0 0 0 0 0 0 0 0 0 0 0 0 0 0.25 0"/>
<feBlend mode="normal" in2="BackgroundImageFix" result="effect1_dropShadow"/>
<feBlend mode="normal" in="SourceGraphic" in2="effect1_dropShadow" result="shape"/>
</filter>
<filter id="filter12_d" x="180.92" y="97.8159" width="47.6186" height="88.4862" filterUnits="userSpaceOnUse" color-interpolation-filters="sRGB">
<feFlood flood-opacity="0" result="BackgroundImageFix"/>
<feColorMatrix in="SourceAlpha" type="matrix" values="0 0 0 0 0 0 0 0 0 0 0 0 0 0 0 0 0 0 127 0"/>
<feOffset dy="1"/>
<feGaussianBlur stdDeviation="0.5"/>
<feColorMatrix type="matrix" values="0 0 0 0 0 0 0 0 0 0 0 0 0 0 0 0 0 0 0.25 0"/>
<feBlend mode="normal" in2="BackgroundImageFix" result="effect1_dropShadow"/>
<feBlend mode="normal" in="SourceGraphic" in2="effect1_dropShadow" result="shape"/>
</filter>
<filter id="filter13_d" x="68" y="97" width="45.6997" height="88.4862" filterUnits="userSpaceOnUse" color-interpolation-filters="sRGB">
<feFlood flood-opacity="0" result="BackgroundImageFix"/>
<feColorMatrix in="SourceAlpha" type="matrix" values="0 0 0 0 0 0 0 0 0 0 0 0 0 0 0 0 0 0 127 0"/>
<feOffset dy="1"/>
<feGaussianBlur stdDeviation="0.5"/>
<feColorMatrix type="matrix" values="0 0 0 0 0 0 0 0 0 0 0 0 0 0 0 0 0 0 0.25 0"/>
<feBlend mode="normal" in2="BackgroundImageFix" result="effect1_dropShadow"/>
<feBlend mode="normal" in="SourceGraphic" in2="effect1_dropShadow" result="shape"/>
</filter>
</defs>
</svg>
